<svg id="Layer_1" data-name="Layer 1" xmlns="http://www.w3.org/2000/svg" xmlns:xlink="http://www.w3.org/1999/xlink" viewBox="0 0 364.91 365.44"><defs><style>.cls-1{fill:#b40102;}.cls-2{fill:#fc0000;}.cls-3{fill:#fd0000;}.cls-4{fill:#fea035;}.cls-5{fill:#fd9831;}.cls-6{fill:#fedfb3;}.cls-7{fill:#fee7bf;}.cls-8{fill:#fcc15c;}.cls-9{fill:#fddea7;}.cls-10{fill:#fdbb4c;}.cls-11{fill:#fde2b4;}.cls-12{fill:#fcb947;}.cls-13{fill:#feeccc;}.cls-14{fill:#fcb63e;}.cls-15{fill:#fdc86d;}.cls-16{fill:#fcaf2c;}.cls-17{fill:#fdc057;}.cls-18{fill:#fcb132;}.cls-19{fill:#fde6bc;}.cls-20{fill:#fdcb74;}.cls-21{fill:#fdd38c;}.cls-22{fill:#fccd79;}.cls-23{fill:#fdd389;}.cls-24{fill:#fdc66a;}.cls-25{fill:#fdca71;}.cls-26{fill:#fef2dc;}.cls-27{fill:#fcdda4;}.cls-28{fill:#fef0d6;}.cls-29{fill:#fddfac;}.cls-30{fill:#fdbd4f;}.cls-31{fill:#fca717;}.cls-32{fill:#fce4b7;}.cls-33{fill:#fcac24;}.cls-34{fill:#fbb539;}.cls-35{fill:#fee9c4;}.cls-36{fill:#feeac9;}.cls-37{fill:#fdd691;}.cls-38{fill:#fcb336;}.cls-39{fill:#fdd797;}.cls-40{fill:#fdd99b;}.cls-41{fill:#fdd694;}.cls-42{fill:#fdc360;}.cls-43{fill:#fdc564;}.cls-44{fill:#fed083;}.cls-45{fill:#fdcd7c;}.cls-46{fill:#fddba1;}.cls-47{fill:#fcb334;}.cls-48{fill:#fdbe56;}.cls-49{fill:#fef0d9;}.cls-50{fill:#fdbe52;}.cls-51{fill:#fde1b1;}.cls-52{fill:#fde6ba;}.cls-53{fill:#fbb844;}.cls-54{fill:#feeed4;}.cls-55{fill:#fdf4e3;}.cls-56{fill:#fcb741;}.cls-57{fill:#fdf1d9;}.cls-58{fill:#fdeac7;}.cls-59{fill:#fef7ea;}.cls-60{fill:#fcab1f;}.cls-61{fill:#feebca;}.cls-62{fill:#fdce7f;}.cls-63{fill:#fca91c;}.cls-64{fill:#fef4e2;}.cls-65{fill:#fdc667;}.cls-66{fill:#fcd48f;}.cls-67{fill:#fed899;}.cls-68{fill:#fcb12f;}.cls-69{fill:#fee5bc;}.cls-70{fill:#fde1af;}.cls-71{fill:#feedcf;}.cls-72{fill:#fcab21;}.cls-73{fill:#fddea8;}.cls-74{fill:#fddda5;}.cls-75{fill:#fcad26;}.cls-76{fill:#fcae29;}.cls-77{fill:#fef3df;}.cls-78{fill:#fddb9e;}.cls-79{fill:#fdca72;}.cls-80{fill:#fda81a;}.cls-81{fill:#fbb53c;}.cls-82{fill:#fca91b;}.cls-83{fill:#feeac7;}.cls-84{fill:#fda511;}.cls-85{fill:#fecf81;}.cls-86{fill:#fee8c1;}.cls-87{fill:#fdb02f;}.cls-88{fill:#fdd186;}.cls-89{fill:#fde9c4;}.cls-90{fill:#fcb539;}.cls-91{fill:#fcb844;}.cls-92{fill:#fef8ec;}.cls-93{fill:#fca614;}.cls-94{fill:#fdbe55;}.cls-95{fill:#fdd590;}.cls-96{fill:#fdc25f;}.cls-97{fill:#fdc361;}.cls-98{fill:#fdcb76;}.cls-99{fill:#fef2df;}.cls-100{fill:#fdcd79;}.cls-101{fill:#fbaa1e;}.cls-102{fill:#fdac26;}.cls-103{fill:#fec059;}.cls-104{fill:#fef5e4;}.cls-105{fill:#feedd1;}.cls-106{fill:#fee7be;}.cls-107{fill:#fef5e5;}.cls-108{fill:#fee0ae;}.cls-109{fill:#fde2b3;}.cls-110{fill:#fde2b5;}.cls-111{fill:#fef8ed;}.cls-112{fill:#fcbc4f;}.cls-113{fill:#fde0ac;}.cls-114{fill:#fcdca1;}.cls-115{fill:#fdd999;}.cls-116{fill:#fdd38b;}.cls-117{fill:#fef7e7;}.cls-118{fill:#fdbd52;}.cls-119{fill:#fcc463;}.cls-120{fill:#fdce7c;}.cls-121{fill:#fcc96f;}.cls-122{fill:#fecc77;}.cls-123{fill:#fec462;}.cls-124{fill:#fcae26;}.cls-125{fill:#fddb9c;}.cls-126{fill:#fddfa9;}.cls-127{fill:#fdbb4a;}.cls-128{fill:#fdf9ee;}.cls-129{fill:#fef6e9;}.cls-130{fill:#fca40f;}.cls-131{fill:#fef5e6;}.cls-132{fill:#fef3e1;}.cls-133{fill:#feefd2;}.cls-134{fill:#fde5b9;}.cls-135{fill:#fdd796;}.cls-136{fill:#fce4b6;}.cls-137{fill:#fdba4a;}.cls-138{fill:#fdcf81;}.cls-139{fill:#fcd48e;}.cls-140{fill:#fefaf1;}.cls-141{fill:#fba91a;}.cls-142{fill:#fca30d;}.cls-143{fill:#fefaf0;}.cls-144{fill:#fcd184;}.cls-145{fill:url(#linear-gradient);}.cls-146{fill:url(#linear-gradient-2);}</style><linearGradient id="linear-gradient" x1="173.36" y1="265.94" x2="327.3" y2="265.94" gradientUnits="userSpaceOnUse"><stop offset="0" stop-color="#fff"/><stop offset="1" stop-color="#ffb11c"/></linearGradient><linearGradient id="linear-gradient-2" x1="194.49" y1="332.18" x2="300.03" y2="332.18" gradientUnits="userSpaceOnUse"><stop offset="0" stop-color="#fff"/><stop offset="1" stop-color="#ffb21d"/></linearGradient></defs><title>VEYM</title><path class="cls-1" d="M127,432.51l2.89-6Q156.13,372.74,182.34,319a6.45,6.45,0,0,0,.35-1.18,7.59,7.59,0,0,0-1.17.37l-112.16,55-1.6.76V125.88L182.7,182.75l.23-.17Q155,124.86,127,67.07H373.66L317.74,182.51l.18.25,114.75-56.89V374L318,317.57l-.24.18,55.94,114.76ZM303.85,195.68c.4-.81.82-1.62,1.22-2.44l11.61-23.94q3.68-7.61,7.36-15.21Q329.89,142,335.75,130c2.18-4.49,4.33-9,6.51-13.49q5.79-12,11.61-23.94c2.24-4.6,4.51-9.18,6.75-13.78.66-1.36,1.26-2.74,1.92-4.17H137.61l.33.75q6.1,12.54,12.2,25.1l15.09,30.9,10.36,21.21q4.89,10,9.78,20c3.06,6.25,6.15,12.48,9.22,18.71l1.5,3L195,195.94c-1.59-.7-3.21-1.36-4.78-2.12q-12-5.82-23.9-11.7l-25.6-12.56-22.82-11.17L91.79,145.56l-15.6-7.67c-.31-.15-.64-.27-1-.43V361.91c1.27-.57,2.48-1.08,3.65-1.65q10.53-5.06,21-10.15l13.28-6.4,20.61-9.95L153.92,324q10.31-5,20.61-9.95L193.29,305c1.26-.61,2.55-1.16,4.06-1.85-.19.49-.26.71-.36.92q-4.61,9.42-9.2,18.83-2.83,5.82-5.69,11.63-6.27,12.81-12.56,25.6-5.47,11.19-11,22.4-6.37,13-12.77,26L138,424.45a8.2,8.2,0,0,0-.31.84H362.55c-.15-.34-.25-.6-.37-.84q-3.17-6.58-6.35-13.17-4.26-8.79-8.54-17.57l-8.22-16.92q-4.29-8.84-8.6-17.67L322,341.76q-4.43-9.11-8.87-18.2c-2.58-5.28-5.19-10.54-7.76-15.82-.71-1.44-1.35-2.92-2.15-4.64,1.74.79,3.18,1.44,4.61,2.12l12.74,6.14,21,10.15,12.85,6.19,21.57,10.42,12.74,6.13L410,354.47c4,1.92,7.89,3.87,11.85,5.78,1.17.57,2.38,1.08,3.63,1.64V137.45c-2.91,1.4-5.71,2.73-8.5,4.09l-23.15,11.33-12.59,6.18-24.1,11.81q-12.21,6-24.43,12c-7,3.43-14,6.9-21,10.33-2.44,1.2-4.9,2.33-7.35,3.48Z" transform="translate(-67.76 -67.07)"/><path class="cls-2" d="M304.36,196.65c2.45-1.15,4.91-2.28,7.35-3.48,7-3.43,14-6.9,21-10.33q12.21-6,24.43-12l24.1-11.81,12.59-6.18,23.15-11.33c2.79-1.36,5.59-2.69,8.5-4.09V361.89c-1.25-.56-2.46-1.07-3.63-1.64-4-1.91-7.9-3.86-11.85-5.78l-21.15-10.22-12.74-6.13L354.5,327.7l-12.85-6.19-21-10.15-12.74-6.14c-1.43-.68-2.87-1.33-4.61-2.12.8,1.72,1.44,3.2,2.15,4.64,2.57,5.28,5.18,10.54,7.76,15.82q4.45,9.09,8.87,18.2l8.43,17.36q4.3,8.83,8.6,17.67l8.22,16.92q4.27,8.79,8.54,17.57,3.19,6.57,6.35,13.17c.12.24.22.5.37.84H137.67a8.2,8.2,0,0,1,.31-.84l7.83-15.93q6.39-13,12.77-26,5.49-11.21,11-22.4,6.28-12.8,12.56-25.6,2.85-5.81,5.69-11.63,4.61-9.4,9.2-18.83c.1-.21.17-.43.36-.92-1.51.69-2.8,1.24-4.06,1.85l-18.76,9.11q-10.29,5-20.61,9.95l-20.18,9.73-20.61,9.95-13.28,6.4q-10.51,5.07-21,10.15c-1.17.57-2.38,1.08-3.65,1.65V137.46c.39.16.72.28,1,.43l15.6,7.67,26.14,12.83,22.82,11.17,25.6,12.56q11.94,5.87,23.9,11.7c1.57.76,3.19,1.42,4.78,2.12a51.13,51.13,0,0,0-5,10.84,49,49,0,0,0-2.17,17c-6,0-12,0-18,0-.95,0-1.28.25-1.17,1.2.59,4.86.91,9.78,1.77,14.59a97.44,97.44,0,0,0,10.78,30.71,70.24,70.24,0,0,0,26.26,27.14.93.93,0,0,1,.53,1.3c-1,3.25-1.88,6.51-2.81,9.77q-8.43,29.76-16.87,59.52c-.34,1.23-.35,1.23,1,1.23H305.5c.37,0,.74,0,1.16-.07-.09-.36-.13-.59-.2-.82l-5.68-18.91q-7.09-23.73-14.22-47.46c-.24-.78-.19-1.14.65-1.53a67.29,67.29,0,0,0,22.51-16.58,81.26,81.26,0,0,0,14.5-23.7,99.73,99.73,0,0,0,6.2-22.08c.68-4.37,1-8.79,1.5-13.18.11-.93-.24-1.14-1.13-1.13-5.52,0-11,0-16.55,0-1,0-1.65-.19-1.74-1.28-.29-2-.48-3.95-.88-5.9A74.89,74.89,0,0,0,304.36,196.65Z" transform="translate(-67.76 -67.07)"/><path class="cls-3" d="M196.09,194.25l-1.5-3c-3.07-6.23-6.16-12.46-9.22-18.71q-4.91-10-9.78-20l-10.36-21.21-15.09-30.9q-6.1-12.54-12.2-25.1l-.33-.75H362.54c-.66,1.43-1.26,2.81-1.92,4.17-2.24,4.6-4.51,9.18-6.75,13.78q-5.82,12-11.61,23.94c-2.18,4.49-4.33,9-6.51,13.49Q329.9,142,324,154.09q-3.69,7.6-7.36,15.21l-11.61,23.94c-.4.82-.82,1.63-1.22,2.44-.39-.6-.79-1.19-1.16-1.8a54,54,0,0,0-21.92-20.4c-8.72-4.38-18-6.25-27.73-6.57a71.59,71.59,0,0,0-17,1.41A63.38,63.38,0,0,0,204.08,185C201.17,187.85,198.74,191.16,196.09,194.25Z" transform="translate(-67.76 -67.07)"/><path class="cls-4" d="M196.09,194.25c2.65-3.09,5.08-6.4,8-9.22A63.38,63.38,0,0,1,236,168.32a71.59,71.59,0,0,1,17-1.41c9.68.32,19,2.19,27.73,6.57a54,54,0,0,1,21.92,20.4c.37.61.77,1.2,1.16,1.8l.51,1a74.89,74.89,0,0,1,7.26,20c.4,1.95.59,3.93.88,5.9.11,1-.25,1.34-1.26,1.27-1.35-.09-2.71,0-4.07,0a46.7,46.7,0,0,0-2.49-14.55,53.47,53.47,0,0,0-25.06-30.41c-10.63-5.73-22-7.7-34-6.93a69.24,69.24,0,0,0-15.84,2.85,53.55,53.55,0,0,0-26.08,17.06,46.33,46.33,0,0,0-11,32h-4.85a49,49,0,0,1,2.17-17,51.13,51.13,0,0,1,5-10.84Z" transform="translate(-67.76 -67.07)"/><path class="cls-5" d="M187.89,223.75H307.17c1.36,0,2.72-.06,4.07,0,1,.07,1.37-.31,1.26-1.27.09,1.09.7,1.29,1.74,1.28,5.51-.06,11,0,16.55,0,.89,0,1.24.2,1.13,1.13-.51,4.39-.82,8.81-1.5,13.18a99.73,99.73,0,0,1-6.2,22.08,81.26,81.26,0,0,1-14.5,23.7,67.29,67.29,0,0,1-22.51,16.58c-.84.39-.89.75-.65,1.53q7.13,23.71,14.22,47.46l5.68,18.91c.07.23.11.46.2.82-.42,0-.79.07-1.16.07H189.35c-1.32,0-1.31,0-1-1.23q8.44-29.76,16.87-59.52c.93-3.26,1.84-6.52,2.81-9.77a.93.93,0,0,0-.53-1.3,70.24,70.24,0,0,1-26.26-27.14,97.44,97.44,0,0,1-10.78-30.71c-.86-4.81-1.18-9.73-1.77-14.59-.11-.95.22-1.21,1.17-1.2C175.89,223.78,181.89,223.75,187.89,223.75ZM297.12,354.56c-.13-.58-.22-1.16-.39-1.73-.57-2-1.17-4-1.77-5.95l-1.92-7-2.16-7.68-.48-2.16-.24-.67-1.92-6.05-1.44-4.8-1.44-4.8-1.68-5.52-1.2-4.08c-.59-1.49-.59-1.49-2-1h-.12l-1.92.72-2.64.72-1.68.48h0l-1.92.48-1.2.24-1.44.24-2.4.48-1.44.24-1.44.24h-.48l-1.44.23h-1.44l-1,.24H258l-1.2.23-1.2,0H246l-2.89-.24h-.49l-1.19,0h-1.68l-1.91-.43h-.26l-1.66-.23-1-.08-.74-.17-1.68-.25-2.38-.47-1.21-.24-1.2-.26-1-.23-1.19-.29-.5-.18-1.91-.5-.95-.29-1.43-.26-1.23-.64-1.92-.7L217,302l-1.91-.77-.49-.22-.48-.23-1.3-.64-.39,1.34-1,3.85c-.61,2.24-1.23,4.49-1.85,6.73-.34,1.27-.67,2.54-1,3.81l-1.2,4.08-2.4,8.16-1.63,5.08-1.51,5.26-1.66,5.74c-.64,2-1.31,4.07-1.89,6.12s-1,3.93-1.49,5.9-1.14,4-1.66,6-.49,2,1.68,1.93H224.4l1.67-.18.74.18h12.95l1.91-.24,1.93.24H259l1.68-.24,2.16.24h7l1.2-.23c.77.33,1.51.5,2.16-.24l1,.24,2.16.24h21.35c2.17,0,2.21,0,1.67-2C298.58,359.61,297.84,357.09,297.12,354.56Zm28.31-114.72c.55-3.22,1.11-6.43,1.66-9.65.12-.73,0-1.3-.93-1.14H282.72l-2.88.23-1.92-.23H178.31c-1.32,0-2.64,0-4-.05-.73,0-.87.25-.78.91a96.07,96.07,0,0,0,3,15.21c.57,1.83,1.15,3.66,1.72,5.49l2.71,7.2q1.76,3.6,3.49,7.22l1.19,2.17.7,1.19,2.08,3.34,1.67,2.4,1.63,2.15,1.38,1.71,2.48,2.85,1.62,1.7,2.22,2.14,2.14,1.92,2.63,2.15,2.13,1.48,2.16,1.43,2.41,1.47,1.21.7,3.32,1.69,1,.47,1.66.73,1.71.7,1.92.73,2.18.76.68.2,1.47.47,1.69.48,1.92.47,1.17.25,2.2.48h0l1.44.26,1.43.23,3.38.46.11,0h.1l2.19.23,3.12.23h.46l4.82.2h1.45l3.83-.2,1.93,0,1.67-.22,2.4-.24h.71l1.69-.24,1.68-.24,2.16-.46,1.2-.25,2.4-.49,1.92-.48,1.44-.47.72-.23,2.4-.73,1.44-.48,1.68-.72,1.92-.72,1.2-.48,1.44-.72,2.16-1.2,1.44-.72,1.68-1,2.88-1.92.72-.48,2.16-1.44,1.2-1,2.4-2.16,1.92-1.92,2.4-2.16,1.68-1.92,2.16-2.4,1.2-1.68,3.12-4.32,1.68-2.88c.6-1,1.26-1.89,1.79-2.89.66-1.25,1.21-2.55,1.81-3.82l2.4-5.29,2.4-6.24c.16-.48.34-.94.47-1.43C323.84,245.77,324.63,242.8,325.43,239.84Z" transform="translate(-67.76 -67.07)"/><path class="cls-6" d="M307.17,223.75H192.74a46.33,46.33,0,0,1,11-32,53.55,53.55,0,0,1,26.08-17.06,69.24,69.24,0,0,1,15.84-2.85c12-.77,23.37,1.2,34,6.93a53.47,53.47,0,0,1,25.06,30.41A46.7,46.7,0,0,1,307.17,223.75Zm-28-25.91a10.68,10.68,0,0,1,1.49,0c.93.14,1-.36.86-1a7.13,7.13,0,0,0-5.32-6.14,15,15,0,0,0-7.59-.18c-3.33.74-5.51,3.12-5.74,6.08-.25,3.13,1.44,5.71,4.69,7,1.26.5,2.58.81,3.87,1.22,1.48.46,3,.82,4.43,1.42a2.22,2.22,0,0,1,1.15,3,3,3,0,0,1-2.07,2,12.29,12.29,0,0,1-3.76.36,4.56,4.56,0,0,1-4.1-3.8c-.09-.35,0-.94-.72-.85-1.31.16-2.62.26-3.93.45a.7.7,0,0,0-.44.56c.54,3.51,2.12,6.28,5.69,7.45a15,15,0,0,0,9.65-.09,7.19,7.19,0,0,0,4.94-6.56c.08-3.79-1.32-6.1-4.65-7.42-1.4-.56-2.88-.9-4.33-1.36s-2.82-.84-4.19-1.36a1.87,1.87,0,0,1-1.28-1.85,2,2,0,0,1,1.32-1.82,7.23,7.23,0,0,1,4.68-.33,2.82,2.82,0,0,1,2.32,2.18c.24,1.13.85,1.28,1.78,1.15C278.24,197.91,278.6,197.89,279.14,197.84Zm-21.38,5.28c0-3.92,0-7.83,0-11.75,0-.68-.18-.9-.87-.86-1.11.05-2.24.06-3.35,0-.7,0-.86.2-.85.86,0,2.72,0,5.44,0,8.16,0,.75-.2.94-.94.93q-4-.08-8,0c-.74,0-.95-.2-.94-.94.05-2.64,0-5.28.05-7.91,0-1-.29-1.17-1.16-1.1a19.64,19.64,0,0,1-2.87,0c-.85-.07-1.07.22-1.06,1.05.05,3.6,0,7.2,0,10.8,0,4.07,0,8.15,0,12.23,0,.7.06,1.11.94,1a15.29,15.29,0,0,1,2.87,0c1,.09,1.3-.17,1.27-1.21-.08-2.92,0-5.84-.05-8.76,0-.81.25-1,1-1,2.64,0,5.28.05,7.92,0,.76,0,1,.16,1,1-.05,3,0,6.08,0,9.12,0,.66.15.9.85.87a26.78,26.78,0,0,1,3.23,0c.79,0,1-.2,1-1C257.74,210.8,257.76,207,257.76,203.12Zm-25.4-3c0-2.88,0-5.76,0-8.63,0-.73-.18-1-.93-.94a18.65,18.65,0,0,1-3,0c-1-.1-1.17.33-1.16,1.22,0,4.67,0,9.35,0,14a23.39,23.39,0,0,1-.19,3.46c-.27,1.8-1,2.46-2.64,2.52a2.74,2.74,0,0,1-3-2.32,6.16,6.16,0,0,1-.21-1.41c0-.52-.17-.7-.72-.63-1.19.15-2.39.2-3.57.36a.91.91,0,0,0-.58.63c.06,2.66.73,5.06,3.14,6.61a9.7,9.7,0,0,0,10.08-.49c2.16-1.68,2.71-4,2.74-6.6S232.36,202.67,232.36,200.08Z" transform="translate(-67.76 -67.07)"/><path class="cls-7" d="M215.47,295.55l-3.32-1.69c.21-.37.61-.75.6-1.12,0-.91-.33-1.81-.33-2.72q0-29.13,0-58.26c0-.74-.46-1.62.37-2.25l-.38-.43h3.34l-.56.37c.63.77.05,1.6.05,2.38q.07,30.85,0,61.71C215.29,294.21,215.41,294.88,215.47,295.55Z" transform="translate(-67.76 -67.07)"/><path class="cls-8" d="M271.2,300.55l-2.4.49c-.08-.82-.23-1.64-.23-2.46q0-33.58,0-67.17a3.17,3.17,0,0,0,0-1.07c-.1-.25-.45-.39-.69-.58l.72-.71h1.92c.15.24.29.47.45.7a1.51,1.51,0,0,0,.21.23c-.87.59-.39,1.47-.39,2.19q-.06,24,0,48.05c0,5.95,0,11.9,0,17.85C270.74,298.9,270.49,299.83,271.2,300.55Z" transform="translate(-67.76 -67.07)"/><path class="cls-9" d="M227.28,229.08h2.87c-.68.67-.47,1.52-.47,2.32v66.55c0,.63-.13,1.29.57,1.69,0,0,0,.14.05.28l-.68-.14c-.55.39.84.41,0,.79l-1.92-.47c-.08-1-.22-1.93-.22-2.9q0-33.13,0-66.28a11.42,11.42,0,0,0-.23-1.63Z" transform="translate(-67.76 -67.07)"/><path class="cls-10" d="M277.92,229.05l1.92.23h.24c-.91.36-.46,1.13-.46,1.71q0,32.37,0,64.75c0,.84.17,1.71-.48,2.42l-1.44.48c-.69-.83-.22-1.77-.22-2.64q0-32.44,0-64.89A9.41,9.41,0,0,1,277.92,229.05Z" transform="translate(-67.76 -67.07)"/><path class="cls-11" d="M221.73,298.18l-1.92-.73c.92.14.22-.49.35-.71.34-.56.32-.95-.33-1.22-.06,0-.08-.15-.12-.23,1.06-.16.59-1,.59-1.53q0-28.75,0-57.52c0-2.39.15-4.78.23-7.16h1.92v57.53c0,3.16,0,6.32,0,9.48,0,.41-.1,1.12-.3,1.17C221.56,297.43,221.87,297.89,221.73,298.18Z" transform="translate(-67.76 -67.07)"/><path class="cls-12" d="M280.08,229.28h-.24l2.88-.23a22.2,22.2,0,0,0-.23,2.29q0,26.61,0,53.21c0,4.05-.29,8.12.22,12.17l-1.92.72c-.16-.3-.43-.59-.45-.9-.07-.82,0-1.66,0-2.49q0-31,0-62c0-.69.22-1.38.24-2.07C280.57,229.74,280.25,229.51,280.08,229.28Z" transform="translate(-67.76 -67.07)"/><path class="cls-13" d="M206.37,290.26l-2.13-1.48.24-.94c.79-.26.73-.9.73-1.55q0-27.56,0-55.13c0-.39.05-.79.05-1.19s0-.59-.05-.89h1.92c.7,1.54.47,3.18.47,4.79q0,27.23,0,54.43C207.63,289.33,207.38,290,206.37,290.26Z" transform="translate(-67.76 -67.07)"/><path class="cls-14" d="M285.84,229h1.92v1a8.05,8.05,0,0,0-.23,1.36q0,30.48,0,60.95v2l-2.16,1.2V252.23c0-7,0-14.07,0-21.1A3,3,0,0,1,285.84,229Z" transform="translate(-67.76 -67.07)"/><path class="cls-15" d="M259,229.06h1.93a4.61,4.61,0,0,1,.24,2.41v68.11a8.22,8.22,0,0,1-.07,1.31c-.14.84-.13.94.31,1.35l-2.4.24c.18-.23.57-.58.52-.69-.64-1.19-.26-2.46-.26-3.67q0-33.31,0-66.64a7.86,7.86,0,0,1,.51-1.94l-.77.22Z" transform="translate(-67.76 -67.07)"/><path class="cls-16" d="M300,285.68l-2.4,2.16c-.08-1.09-.23-2.18-.23-3.27q0-26.71,0-53.42c0-.52-.21-1.17.57-1.39,0,0,0-.2,0-.23-.77-.45.41-.22.17-.49h1.2a2.55,2.55,0,0,1,.48,2v51.28c0,.32.12.74,0,.94C299,284.22,299.46,284.94,300,285.68Z" transform="translate(-67.76 -67.07)"/><path class="cls-17" d="M271.2,300.55c-.71-.72-.46-1.65-.46-2.48,0-5.95,0-11.9,0-17.85q0-24,0-48.05c0-.72-.48-1.6.39-2.19a1.51,1.51,0,0,1-.21-.23c-.16-.23-.3-.46-.45-.7h1.92c.08.32.16.63.22.95h-.1v68.82h.08q0-34.41,0-68.82a7.63,7.63,0,0,1,.25,1.48q0,33.14,0,66.28a22.58,22.58,0,0,0,.23,2.31Z" transform="translate(-67.76 -67.07)"/><path class="cls-18" d="M293.52,229h2.64a3.7,3.7,0,0,0-.3.34c.65.71.28,1.56.28,2.33q0,27.3,0,54.59c0,.32.12.72,0,.95-.4.64,0,1.07.26,1.55l-2.16,1.44c-.08-1.19-.23-2.37-.23-3.56q0-26.21,0-52.4C294,232.52,294.21,230.74,293.52,229Z" transform="translate(-67.76 -67.07)"/><path class="cls-19" d="M215.47,295.55c-.06-.67-.18-1.34-.18-2q0-30.85,0-61.71c0-.78.58-1.61-.05-2.38l.56-.37h1c.91,2.79.45,5.66.46,8.49q.06,28.1,0,56.2a7.79,7.79,0,0,0,0,1.08,1,1,0,0,1-.77,1.17Z" transform="translate(-67.76 -67.07)"/><path class="cls-20" d="M257.29,302.7l-1.93,0c.31-.42.52-.79-.3-.79-.14,0-.28-.12-.42-.18v-.24l.83,0a10.69,10.69,0,0,1-.34-1.82q0-35.29,0-70.59H257c-.08.83-.23,1.66-.23,2.48q0,34,0,68.07a3,3,0,0,0,1.22,2.87Z" transform="translate(-67.76 -67.07)"/><path class="cls-21" d="M244.8,302.72l-3.12-.23v-.25c.44.05,1,.34,1-.47s-.07-1.47-.07-2.21q0-33.8,0-67.59c0-1,.15-1.94.24-2.9h1a6.14,6.14,0,0,1,.45,1.62q0,34.47,0,68.95a2.87,2.87,0,0,0,0,.83C244.59,301.2,244.08,302.1,244.8,302.72Z" transform="translate(-67.76 -67.07)"/><path class="cls-22" d="M254.64,301.52v.24h-1.2v.14l1.45.38,0,.2H252l-.24-.24c.39-.41,1.11-.8,1.13-1.22.06-1.73-.16-3.47-.16-5.21q0-32.15,0-64.3a3.14,3.14,0,0,0,0-1.19c-.3-.67.09-.94.51-1.26h1.68l-1.36.39c1.16.15.88,1,.88,1.6q0,34.3,0,68.62A14.61,14.61,0,0,0,254.64,301.52Z" transform="translate(-67.76 -67.07)"/><path class="cls-23" d="M244.8,302.72c-.72-.62-.21-1.52-.47-2.25a2.87,2.87,0,0,1,0-.83q0-34.49,0-68.95a6.14,6.14,0,0,0-.45-1.62H246c-.08.08-.25.17-.24.25.07.76.24,1.53.24,2.3q0,34,0,68.08v3l-.74,0Z" transform="translate(-67.76 -67.07)"/><path class="cls-24" d="M261.36,302.24c-.44-.41-.45-.51-.31-1.35a8.22,8.22,0,0,0,.07-1.31V231.47a4.61,4.61,0,0,0-.24-2.41h1.92v70.65c0,.39-.07.79-.05,1.19.05.85.07.85-.76.88l.08.45Z" transform="translate(-67.76 -67.07)"/><path class="cls-25" d="M258,302.48a3,3,0,0,1-1.22-2.87q0-34,0-68.07c0-.82.15-1.65.23-2.48H259v.7a6.17,6.17,0,0,0-.46,1.62q0,34,0,68a12.46,12.46,0,0,0,.06,2.12A.81.81,0,0,1,258,302.48Z" transform="translate(-67.76 -67.07)"/><path class="cls-26" d="M194.39,229.08h1.22a5.89,5.89,0,0,0,.41.57c.54.56,0,1.16,0,1.72q.06,20.57,0,41.12c0,2.32,0,4.64,0,6.95a5.57,5.57,0,0,1-.43,1.43L193.15,278c.14-.18.38-.34.4-.53.08-.82.12-1.65.13-2.48q0-21.88,0-43.77a7.39,7.39,0,0,0,.12-1.39C193.68,229.27,194.1,229.26,194.39,229.08Z" transform="translate(-67.76 -67.07)"/><path class="cls-15" d="M255.11,364.14h-2.63c.08-.93.23-1.85.23-2.78q0-26.19,0-52.37a6.51,6.51,0,0,1,.25-1.21h2.4l-.74.5c.69.63.25,1.42.25,2.11q0,25.39,0,50.79c0,.58.23,1.46,0,1.67C253.79,363.63,254.91,363.75,255.11,364.14Z" transform="translate(-67.76 -67.07)"/><path class="cls-27" d="M229.67,300.56c.79-.38-.6-.4,0-.79l.68.14c0-.14,0-.26-.05-.28-.7-.4-.57-1.06-.57-1.69V231.39c0-.8-.21-1.65.47-2.32h1a21.41,21.41,0,0,1,.22,2.25q0,33.17,0,66.33c0,.82-.55,1.66.12,2.52.2.25-.11.74-.66.64Z" transform="translate(-67.76 -67.07)"/><path class="cls-28" d="M197.53,229.08h2.38c0,.15-.11.32-.06.45s.36.4.36.59c0,3.32-.05,6.64-.05,9.95v42.48c0,.79.05,1.6-.69,2.16l-2.22-2.14c.25-.55.72-1.11.72-1.66q.06-25,0-50c0-.37-.26-.75-.21-1.1S197.88,229.26,197.53,229.08Z" transform="translate(-67.76 -67.07)"/><path class="cls-29" d="M227.28,229.08v.2c-.24.14-.69.28-.69.42,0,.7.2,1.39.2,2.08q0,26,0,52c0,4.76,0,9.51,0,14.27,0,.68,0,1.29-.75,1.61l-1.47-.47c.86-.19.51-.89.52-1.37q0-32.82,0-65.63c0-.92-.31-1.93.51-2.72,0,0-.18-.23-.27-.35Z" transform="translate(-67.76 -67.07)"/><path class="cls-30" d="M277.92,229.05a9.41,9.41,0,0,0-.46,2.06q0,32.44,0,64.89c0,.87-.47,1.81.22,2.64l-2.4.73a6.24,6.24,0,0,0,.46-1.63q0-32.31,0-64.64a8.46,8.46,0,0,1,.48-4Z" transform="translate(-67.76 -67.07)"/><path class="cls-31" d="M317.76,261.69c-.6,1.27-1.15,2.57-1.81,3.82-.53,1-1.19,1.93-1.79,2.89a1.28,1.28,0,0,1-.25-1.64,3.21,3.21,0,0,0,.24-1.39c0-1.68,0-3.35,0-5V231c0-.81,0-1.62,1-2H318l-1.1.33a4.62,4.62,0,0,1,.36,1.24q0,14.26,0,28.52c0,.46-.55.95-.48,1.37s.64.63,1,.95C317.79,261.49,317.76,261.61,317.76,261.69Z" transform="translate(-67.76 -67.07)"/><path class="cls-32" d="M220.56,229.08c-.08,2.38-.23,4.77-.23,7.16q0,28.75,0,57.52c0,.52.47,1.37-.59,1.53,0,.08.06.2.12.23.65.27.67.66.33,1.22-.13.22.57.85-.35.71l-1.71-.7.61-.21c-.75-.87,0-1.78,0-2.66q-.08-31.19,0-62.39c0-.4-.13-1,.07-1.16.51-.52,0-.85-.07-1.25Z" transform="translate(-67.76 -67.07)"/><path class="cls-33" d="M304.08,229h1.68v47.73c0,.66.1,1.31.09,2,0,.13-.27.26-.42.39l.57.56-1.68,1.92a7.78,7.78,0,0,1-.64-.9c-.05-.1.19-.33.17-.49a17.12,17.12,0,0,1-.24-1.75q0-23.49,0-47A13,13,0,0,1,304.08,229Z" transform="translate(-67.76 -67.07)"/><path class="cls-34" d="M290.64,292.64l-1.68,1V231.12c0-.32.13-.76,0-.93-.55-.59.15-.78.27-1.15h1.68c-.23.2.61.92-.37.75,0,.11,0,.22,0,.34,0,.47.11.94.11,1.41q0,29.33,0,58.66A8,8,0,0,1,290.64,292.64Z" transform="translate(-67.76 -67.07)"/><path class="cls-35" d="M212.41,229.08l.38.43c-.83.63-.37,1.51-.37,2.25q0,29.13,0,58.26c0,.91.31,1.81.33,2.72,0,.37-.39.75-.6,1.12l-1.21-.7c.09-.29.29-.59.25-.86a16.94,16.94,0,0,1-.45-2.16q0-27,0-54c0-2.34.15-4.69.23-7Z" transform="translate(-67.76 -67.07)"/><path class="cls-36" d="M206.37,290.26c1-.28,1.26-.93,1.25-2q0-27.21,0-54.43c0-1.61.23-3.25-.47-4.79H210c-.65.2-1.14.44-.75,1.3a3.07,3.07,0,0,1,0,1.18v58.5a2.3,2.3,0,0,1,0,.95c-.13.28-.47.46-.72.68Z" transform="translate(-67.76 -67.07)"/><path class="cls-37" d="M241.68,302.24v.25l-2.19-.23.8-.51c-.75-.66-.25-1.51-.26-2.23q-.06-31.63,0-63.29c0-2.39-.15-4.77-.23-7.16h1.92a19.33,19.33,0,0,0-.23,2.12q0,34.25,0,68.47a4.7,4.7,0,0,1,0,.84c-.05.28.67.8-.24.83C241.39,301.61,241.09,302.16,241.68,302.24Z" transform="translate(-67.76 -67.07)"/><path class="cls-38" d="M290.64,292.64a8,8,0,0,0,0-2.44q0-29.34,0-58.66c0-.47-.07-.94-.11-1.41,0-.12,0-.23,0-.34,1,.17.14-.55.37-.75h.72c.23.17.64.33.65.52a26.65,26.65,0,0,1,.07,2.68q0,28,0,56c0,1,.53,2-.2,2.89,0,0,.09.1.07.08l1.34-.48Z" transform="translate(-67.76 -67.07)"/><path class="cls-39" d="M239.28,302.24l-3.38-.46,0,0c1,0,1.23-.2,1.19-1.3,0-.36,0-.72,0-1.08q0-34,0-68a18,18,0,0,0-.17-1.8l.9-.34c.53,0,1.08-.12.68.79-.18.39,0,.94,0,1.41q0,34,0,68c0,.54-.44,1.12-.32,1.59S238.91,301.84,239.28,302.24Z" transform="translate(-67.76 -67.07)"/><path class="cls-40" d="M235.9,301.78l-1.43-.23q0-35.25,0-70.51a1.43,1.43,0,0,0,0-.59A1.92,1.92,0,0,0,234,230v-.93h1.92v70.67c0,.67,0,1.34,0,2Z" transform="translate(-67.76 -67.07)"/><path class="cls-41" d="M239.28,302.24c-.37-.4-.94-.75-1.06-1.21s.32-1,.32-1.59q0-34,0-68c0-.47-.22-1,0-1.41.4-.91-.15-.79-.68-.79l-.23-.21h2.15c.08,2.39.23,4.77.23,7.16q0,31.65,0,63.29c0,.72-.49,1.57.26,2.23l-.8.51h-.1Z" transform="translate(-67.76 -67.07)"/><path class="cls-42" d="M268.56,229.05l-.72.71a9.85,9.85,0,0,0-.23,1.51q0,35,0,70l-2.16.46.48-.47a5.57,5.57,0,0,0,.23-1.12q0-34.68,0-69.37a2.34,2.34,0,0,1,.49-1.74Z" transform="translate(-67.76 -67.07)"/><path class="cls-43" d="M265.92,301.28l-.48.47-1.68.24c.53-3.11.22-6.25.22-9.38q.06-30.47,0-60.94c0-.32,0-.64,0-1s-.46-1.19.6-1.11a3,3,0,0,0,.12-.54h1.43a1.24,1.24,0,0,0-.73,1.3q0,34.83,0,69.66A4,4,0,0,0,265.92,301.28Z" transform="translate(-67.76 -67.07)"/><path class="cls-44" d="M247.43,229.07h1.69V300c0,.28.12.7,0,.81-.61.51-.19.84.33,1.26l-.79-.09c-.87-.18-1.3-.62-1-1.57a2.87,2.87,0,0,0,0-.83q0-34,0-68.07c0-.57.09-1.13.14-1.77H247Z" transform="translate(-67.76 -67.07)"/><path class="cls-45" d="M253.19,229.06c-.42.32-.81.59-.51,1.26a3.14,3.14,0,0,1,0,1.19q0,32.14,0,64.3c0,1.74.22,3.48.16,5.21,0,.42-.74.81-1.13,1.22a13.25,13.25,0,0,1-.46-2.47q0-34.59,0-69.19a10,10,0,0,1,.22-1.52Z" transform="translate(-67.76 -67.07)"/><path class="cls-46" d="M230.84,300.81c.55.1.86-.39.66-.64-.67-.86-.12-1.7-.12-2.52q0-33.16,0-66.33a21.41,21.41,0,0,0-.22-2.25h1c.67.37.71,1,.71,1.66v.84q0,34.05,0,68.09a11.42,11.42,0,0,0,.23,1.63Z" transform="translate(-67.76 -67.07)"/><path class="cls-47" d="M293.52,290.72l-1.34.48s-.08-.07-.07-.08c.73-.92.2-1.93.2-2.89q0-28,0-56a26.65,26.65,0,0,0-.07-2.68c0-.19-.42-.35-.65-.52h1.92c.69,1.7.47,3.48.48,5.24q0,26.21,0,52.4c0,1.19.15,2.37.23,3.56Z" transform="translate(-67.76 -67.07)"/><path class="cls-48" d="M273.12,300.07a22.58,22.58,0,0,1-.23-2.31q0-33.13,0-66.28a9.47,9.47,0,0,0-.23-1.48l-.24-.95h1.92q0,34.45,0,68.92a11.22,11.22,0,0,0,.23,1.63Z" transform="translate(-67.76 -67.07)"/><path class="cls-49" d="M197.53,229.08c.35.18.31.32.25.78s.21.73.21,1.1q0,25,0,50c0,.55-.47,1.11-.72,1.66l-1.62-1.7a5.57,5.57,0,0,0,.43-1.43c0-2.31,0-4.63,0-6.95q0-20.57,0-41.12c0-.56.51-1.16,0-1.72a5.89,5.89,0,0,1-.41-.57Z" transform="translate(-67.76 -67.07)"/><path class="cls-50" d="M274.56,299.6a11.22,11.22,0,0,1-.23-1.63q0-34.46,0-68.92h1.92a8.46,8.46,0,0,0-.48,4q0,32.33,0,64.64a6.24,6.24,0,0,1-.46,1.63Z" transform="translate(-67.76 -67.07)"/><path class="cls-51" d="M221.73,298.18c.14-.29-.17-.75.44-.92.2-.05.29-.76.3-1.17,0-3.16,0-6.32,0-9.48V229.08h1.91l-1,.31c.25.1.72.2.72.3,0,.57-.19,1.15-.19,1.73q0,32.18,0,64.37c0,1-.49,2.1,0,3.15Z" transform="translate(-67.76 -67.07)"/><path class="cls-52" d="M218.64,229.08c.09.4.58.73.07,1.25-.2.21-.07.76-.07,1.16q0,31.2,0,62.39c0,.88-.72,1.79,0,2.66l-.61.21-1.66-.73a1,1,0,0,0,.77-1.17,7.79,7.79,0,0,1,0-1.08q0-28.09,0-56.2c0-2.83.45-5.7-.46-8.49Z" transform="translate(-67.76 -67.07)"/><path class="cls-53" d="M282.72,296.72c-.51-4.05-.21-8.12-.22-12.17q-.06-26.61,0-53.21a22.2,22.2,0,0,1,.23-2.29h1.44a5,5,0,0,0,.22.47,2.13,2.13,0,0,0,.21.22c-1.22.46-.64,1.52-.64,2.28q-.06,30.85,0,61.72v2.5Z" transform="translate(-67.76 -67.07)"/><path class="cls-54" d="M199.47,284.71c.74-.56.69-1.37.69-2.16V240.07c0-3.31.05-6.63.05-9.95,0-.19-.28-.38-.36-.59s0-.3.06-.45h2.4l-.7.28.71.64c-.85.23-.46.93-.46,1.4q0,26.4,0,52.79c0,.4,0,.8,0,1.2s0,.67,0,1l-.23.23Z" transform="translate(-67.76 -67.07)"/><path class="cls-55" d="M188.41,229.08h3.1c-.95.55-.45,1.43-.45,2.15,0,13.25,0,26.5,0,39.75a16.38,16.38,0,0,1-.35,2.69c0,.19-.35.33-.54.49l-1.67-2.4c.24-.13.68-.28.67-.4,0-.76-.25-1.51-.25-2.26,0-12.7,0-25.39,0-38.09A8.43,8.43,0,0,0,188.41,229.08Z" transform="translate(-67.76 -67.07)"/><path class="cls-56" d="M283.92,296.24v-2.5q0-30.86,0-61.72c0-.76-.58-1.82.64-2.28a2.13,2.13,0,0,1-.21-.22,5,5,0,0,1-.22-.47h1.68a3,3,0,0,0-.49,2.09c0,7,0,14.07,0,21.1v43.29Z" transform="translate(-67.76 -67.07)"/><path class="cls-57" d="M211.21,364.12H211l-.59-.44c-.11-.08-.33-.15-.33-.24,0-.81,0-1.63,0-2.44,0-15.06,0-30.12.05-45.18,0-.54-1-1.56.48-1.8a.33.33,0,0,0,0-.2c-.32-.58-.64-1.16-1-1.74.62-2.24,1.24-4.49,1.85-6.73.16.25.44.5.45.77,0,.45-.17.91-.17,1.37q0,10.54,0,21.09,0,16.29,0,32.59A4.71,4.71,0,0,1,211.21,364.12Z" transform="translate(-67.76 -67.07)"/><path class="cls-58" d="M208.53,291.69c.25-.22.59-.4.72-.68a2.3,2.3,0,0,0,0-.95v-58.5a3.07,3.07,0,0,0,0-1.18c-.39-.86.1-1.1.75-1.3h1c-.08,2.34-.23,4.69-.23,7q0,27,0,54a16.94,16.94,0,0,0,.45,2.16c0,.27-.16.57-.25.86Z" transform="translate(-67.76 -67.07)"/><path class="cls-59" d="M184.5,265.06q-1.74-3.62-3.49-7.22a2.07,2.07,0,0,0,.42-.59c.1-.34.06-.72.14-1.06a9.51,9.51,0,0,0,.56-2.12c.05-7.67,0-15.34,0-23,0-.32-.11-.83,0-.92.66-.43,0-.72,0-1.06h2.63c-.36.24-.33.22-.14.47a.92.92,0,0,1,.15.57q0,15.8,0,31.6c0,.68,0,.66-.52,1.15a.57.57,0,0,0,0,.51,5.25,5.25,0,0,0,.61.73A.57.57,0,0,1,184.5,265.06Z" transform="translate(-67.76 -67.07)"/><path class="cls-60" d="M309.36,275.6l-1.2,1.68c-.32-.34-.65-.67-1-1,0,0,.06-.18.07-.28a10.74,10.74,0,0,0,.15-1.39q0-21.56,0-43.1c0-.47.26-1.11,0-1.4-.65-.84.38-.46.47-.69l-1-.37h1.92a.42.42,0,0,1,.28.52c0,.05.08.13.12.19s.29.36.28.53c0,.55-.19,1.09-.19,1.64,0,12.94,0,25.88,0,38.82,0,.84.48,1.72-.34,2.62C308.67,273.7,309.21,274.83,309.36,275.6Z" transform="translate(-67.76 -67.07)"/><path class="cls-61" d="M218.87,364.12h-2.14l.5-.37c-1.17-.6.34-.47.21-.79q0-29.52,0-59a11.2,11.2,0,0,1,.22-1.63l1.92.7c-.26.2-.74.38-.75.59-.06.94,0,1.89,0,2.84v54.88a8,8,0,0,0,.08,1.3c.07.42.49.87-.24,1.09Z" transform="translate(-67.76 -67.07)"/><path class="cls-62" d="M251.51,229.06a10,10,0,0,0-.22,1.52q0,34.59,0,69.19a13.25,13.25,0,0,0,.46,2.47l.24.24-.47.45h-1.45V231.07c0-.67,0-1.34,0-2Z" transform="translate(-67.76 -67.07)"/><path class="cls-63" d="M309.36,275.6c-.15-.77-.69-1.9-.37-2.24.82-.9.34-1.78.34-2.62,0-12.94,0-25.88,0-38.82,0-.55.16-1.09.19-1.64,0-.17-.18-.35-.28-.53s-.13-.14-.12-.19a.42.42,0,0,0-.28-.52h2.88c-.61.19-.4.58-.28,1l-.19.05s-.09,0-.1.06a1.08,1.08,0,0,0-.13.32c0,.24,0,.48,0,.72q.06,19.49.13,39l.09,0a.69.69,0,0,0,.19,0q0-20.07,0-40.14a5.3,5.3,0,0,1,.27,1.35c0,9.9.07,19.79,0,29.69,0,3.43.54,6.9-.44,10.3l.95-.31.24.24Z" transform="translate(-67.76 -67.07)"/><path class="cls-64" d="M205,328.13l2.4-8.16q0,20.73,0,41.44c0,.31,0,.71-.13.92-.79.95-.1,1.21.68,1.46l-.78.33H205.2q0-16.25-.07-32.5C205.13,330.46,205,329.3,205,328.13Z" transform="translate(-67.76 -67.07)"/><path class="cls-65" d="M264.72,229.06a3,3,0,0,1-.12.54c-1.06-.08-.57.66-.6,1.11s0,.64,0,1q0,30.47,0,60.94c0,3.13.31,6.27-.22,9.38l-1.69.24-.08-.45c.83,0,.81,0,.76-.88,0-.4.05-.8.05-1.19V229.06Z" transform="translate(-67.76 -67.07)"/><path class="cls-66" d="M241.68,302.24c-.59-.08-.29-.63-.49-.91.91,0,.19-.55.24-.83a4.7,4.7,0,0,0,0-.84q0-34.23,0-68.47a19.33,19.33,0,0,1,.23-2.12h1.21c-.09,1-.24,1.93-.24,2.9q0,33.79,0,67.59c0,.74.09,1.48.07,2.21S242.12,302.29,241.68,302.24Z" transform="translate(-67.76 -67.07)"/><path class="cls-67" d="M237.61,229.07l.23.21-.9.34a18,18,0,0,1,.17,1.8q0,34,0,68c0,.36,0,.72,0,1.08,0,1.1-.14,1.3-1.19,1.3,0-.67,0-1.34,0-2V229.07Z" transform="translate(-67.76 -67.07)"/><path class="cls-68" d="M279.84,364.16h-1.68c.24-.21.76-.45-.05-.56.82-.84,0-1.72,0-2.56q.08-27.75,0-55.5a1.69,1.69,0,0,1,.74-1.62c.94.54.71,1.48.71,2.29q0,27.39,0,54.79c0,.48.27,1.16,0,1.39C279,363.15,279.48,363.61,279.84,364.16Z" transform="translate(-67.76 -67.07)"/><path class="cls-38" d="M274.08,305.12l1.68-.48.48.24V319.4q0,21,0,42a9.26,9.26,0,0,0,.25,1.55l-.82.11.56,1.12-2.16-.24,1-.05c.16-.46-.38-.61-.13-1.2.3-.74-.13-1.76-.13-2.65q0-26.81,0-53.61C274.8,305.85,275,305.17,274.08,305.12Z" transform="translate(-67.76 -67.07)"/><path class="cls-69" d="M223.2,304.17l1.91.5a5.25,5.25,0,0,0-.34,1.18c0,.69.1,1.38.1,2.08q0,26.74,0,53.49a15.88,15.88,0,0,1-.46,2.7h-.49a6.14,6.14,0,0,1-.45-1.62q0-28.15,0-56.33A17,17,0,0,0,223.2,304.17Z" transform="translate(-67.76 -67.07)"/><path class="cls-70" d="M223.91,298.94c-.48-1.05,0-2.1,0-3.15q0-32.19,0-64.37c0-.58.18-1.16.19-1.73,0-.1-.47-.2-.72-.3l1-.31h1c.09.12.28.34.27.35-.82.79-.51,1.8-.51,2.72q0,32.82,0,65.63c0,.48.34,1.18-.52,1.37Z" transform="translate(-67.76 -67.07)"/><path class="cls-71" d="M205.2,229.08c0,.3.05.59.05.89s-.05.8-.05,1.19q0,27.57,0,55.13c0,.65.06,1.29-.73,1.55-1.24.25-.69-.75-.69-1.15q0-27.75,0-55.51c0-.43.23-1.06,0-1.26-.48-.47-.21-.38.17-.4.74,0,.07-.29.06-.44Z" transform="translate(-67.76 -67.07)"/><path class="cls-72" d="M307,229l1,.37c-.09.23-1.12-.15-.47.69.22.29,0,.93,0,1.4q0,21.56,0,43.1a10.74,10.74,0,0,1-.15,1.39c0,.1-.11.24-.07.28.3.34.63.67,1,1l-2.16,2.4-.57-.56c.15-.13.41-.26.42-.39,0-.65-.09-1.3-.09-2V229Z" transform="translate(-67.76 -67.07)"/><path class="cls-73" d="M232.09,364.13h-.5c-.13-.41-.77-.4-.54-1.25a11.84,11.84,0,0,0,.09-2.88c0-17.18,0-34.37,0-51.55a10.15,10.15,0,0,0-.46-2.13l-.47-.45,2.38.47c0,.67,0,1.34,0,2v52.79c0,.75.06,1.5,0,2.25C232.54,363.65,232.25,363.88,232.09,364.13Z" transform="translate(-67.76 -67.07)"/><path class="cls-12" d="M269.76,364.15h-1.92c.11-.11.33-.28.3-.33-.63-1.33-.28-2.73-.28-4.09q0-25.82,0-51.64a2.5,2.5,0,0,0,0-.95c-.11-.24-.45-.39-.69-.58h0l2.4-.48a7.17,7.17,0,0,0-.23,1.28q0,27.61,0,55.25A5.64,5.64,0,0,0,269.76,364.15Z" transform="translate(-67.76 -67.07)"/><path class="cls-74" d="M232.09,364.13c.16-.25.45-.48.47-.74.06-.75,0-1.5,0-2.25V308.35c0-.67,0-1.34,0-2l1.68.25a9.82,9.82,0,0,0-.22,1.51q0,26.55,0,53.1c0,.36-.09.8.08,1.06.46.68.08,1.25-.08,1.86Z" transform="translate(-67.76 -67.07)"/><path class="cls-75" d="M283.92,364.16H282c.59-.86,0-1.72,0-2.58,0-15.54,0-31.07,0-46.61,0-2.45.16-4.9.23-7.35,0-.3-.17-.84-.1-.87.88-.38.3-1.09.27-1.54,0-.65-.2-.64.07-1l1.2,4.08a8.4,8.4,0,0,0-.23,1.39q0,26,0,52c0,.43.18,1,0,1.27C282.86,363.69,283.52,363.84,283.92,364.16Z" transform="translate(-67.76 -67.07)"/><path class="cls-76" d="M300,285.68c-.54-.74-1-1.46-.28-2.39.16-.2,0-.62,0-.94V231.07a2.55,2.55,0,0,0-.48-2h1.92a3.15,3.15,0,0,1,.33,1c0,.34-.31.68-.32,1q0,25.31,0,50.59a4.85,4.85,0,0,0,.46,1.41l.24.72Z" transform="translate(-67.76 -67.07)"/><path class="cls-10" d="M265.68,306.8l1.44-.24h0v57.59h-1.2c-.33-.19,1.22-.23.05-.51-.06,0-.11-.18-.11-.28-.07-.75-.17-1.49-.17-2.24Q265.68,334,265.68,306.8Z" transform="translate(-67.76 -67.07)"/><path class="cls-77" d="M194.39,229.08c-.29.18-.71.19-.58.77a7.39,7.39,0,0,1-.12,1.39q0,21.88,0,43.77c0,.83-.05,1.66-.13,2.48,0,.19-.26.35-.4.53l-1.38-1.71A8,8,0,0,0,192,275q0-21.4,0-42.81c0-.71.51-1.61-.42-2.16,0-.07.08-.19.14-.2.84-.15-.19-.5.07-.7Z" transform="translate(-67.76 -67.07)"/><path class="cls-78" d="M235.93,364.13h-.73c-.08-.9-.23-1.8-.23-2.69q0-27.35,0-54.68l1,.08a23.08,23.08,0,0,1,.45,3.28c0,13.38,0,26.77,0,40.15,0,4.11.06,8.22,0,12.34A5.14,5.14,0,0,1,235.93,364.13Z" transform="translate(-67.76 -67.07)"/><path class="cls-79" d="M253,307.78a6.51,6.51,0,0,0-.25,1.21q0,26.19,0,52.37c0,.93-.15,1.85-.23,2.78h-1.2c.18-.28.57-.72.5-.82-1-1.31-.47-2.79-.47-4.17-.05-17.12,0-34.24,0-51.37Z" transform="translate(-67.76 -67.07)"/><path class="cls-33" d="M283.92,364.16c-.4-.32-1.06-.47-.5-1.25.2-.29,0-.84,0-1.27q0-26,0-52a8.4,8.4,0,0,1,.23-1.39l1.68,5.52c-.23.16-1-.21-.57.63a2.32,2.32,0,0,1,.09,1.06q0,22.94,0,45.86a15.65,15.65,0,0,1,.17,1.65c-.1.88-.16.88.78,1v.24Z" transform="translate(-67.76 -67.07)"/><path class="cls-80" d="M312.48,271.28l-.24-.24v-40.3a2.09,2.09,0,0,1,.48-1.7h2.4c-1,.33-1,1.14-1,2v29.35c0,1.68,0,3.35,0,5a3.21,3.21,0,0,1-.24,1.39,1.28,1.28,0,0,0,.25,1.64Z" transform="translate(-67.76 -67.07)"/><path class="cls-81" d="M289.2,229c-.12.37-.82.56-.27,1.15.16.17,0,.61,0,.93V293.6l-1.44.72v-2q0-30.48,0-60.95a3.75,3.75,0,0,1,.31-1.32c.05,0,0,0,0,0v61.42h.09q0-30.68-.08-61.38a4.39,4.39,0,0,1-.08-1Z" transform="translate(-67.76 -67.07)"/><path class="cls-71" d="M217.44,363c.13.32-1.38.19-.21.79l-.5.37H214.8v-.2c.87-.75.71-1.8.71-2.75q0-27.24,0-54.48c0-1.82.27-3.68-.46-5.44L217,302a18.82,18.82,0,0,0-.23,2.12q0,28.71,0,57.41c0,.28-.09.61,0,.83S217.2,362.77,217.44,363Z" transform="translate(-67.76 -67.07)"/><path class="cls-54" d="M214.8,363.92v.2h-1.92a2.46,2.46,0,0,0,.43-.67,1.25,1.25,0,0,0-.08-.69c-.87,0-.58-.64-.58-1.07q0-26.67,0-53.34a19.32,19.32,0,0,1,.15-4.86,5.08,5.08,0,0,0-.4-2l.39-1.34,1.3.64a10,10,0,0,0-.23,1.52q0,29.54,0,59.08a21.18,21.18,0,0,0,.18,2.38c0,.07.34.1.53.14Z" transform="translate(-67.76 -67.07)"/><path class="cls-76" d="M282.48,304.16c-.27.41-.1.4-.07,1,0,.45.61,1.16-.27,1.54-.07,0,.11.57.1.87-.07,2.45-.23,4.9-.23,7.35,0,15.54,0,31.07,0,46.61,0,.86.62,1.72,0,2.58h-1.92c.82-.24,1-.75.85-1.57a8.12,8.12,0,0,1-.13-1.78V306.34c0-2.1,0-2.19-.48-3.14h.12C281.89,302.67,281.89,302.67,282.48,304.16Z" transform="translate(-67.76 -67.07)"/><path class="cls-82" d="M288.24,323.36l1.92,6.05.24.67c-.07.41-1-.18-.69.51s.1,1.36,0,2.08a43.1,43.1,0,0,0-.06,4.55c0,8,0,16,0,24.08,0,.72-.69,1.4-.09,2.13a.38.38,0,0,1-.14.17c-.86.5.45.27.19.56h-1.92c.1-.32.21-.63.31-.94a.45.45,0,0,0,0-.28,5.36,5.36,0,0,1-.33-1.15q0-16.64,0-33.27a4.15,4.15,0,0,1,.11-.93,3.53,3.53,0,0,0-.09-1.92c0-.13,0-.41.09-.43,1-.19.46-.69.29-1.17C288.09,323.87,288.21,323.6,288.24,323.36Z" transform="translate(-67.76 -67.07)"/><path class="cls-83" d="M218.87,364.12l-.15-.44c.73-.22.31-.67.24-1.09a8,8,0,0,1-.08-1.3V306.41c0-1-.1-1.9,0-2.84,0-.21.49-.39.75-.59l1.23.64.22.78c-.85.06-1,.55-1,1.33q0,27.75,0,55.49c0,1,.14,1.93.22,2.9Z" transform="translate(-67.76 -67.07)"/><path class="cls-84" d="M322.56,250.16l-2.4,6.24c-.9-.58-.79-1.35-.78-2.35.11-7.83.05-15.67.07-23.5,0-.77-.08-1.37-1-1.51h3.84q0,9.89,0,19.75A8.17,8.17,0,0,0,322.56,250.16Z" transform="translate(-67.76 -67.07)"/><path class="cls-16" d="M280.32,303.2c.46.95.48,1,.48,3.14v54.47a8.12,8.12,0,0,0,.13,1.78c.19.82,0,1.33-.85,1.57h-.24c-.36-.55-.89-1-.19-1.77.22-.23,0-.91,0-1.39q0-27.39,0-54.79c0-.81.23-1.75-.71-2.29h-.48Z" transform="translate(-67.76 -67.07)"/><path class="cls-85" d="M250.09,229.07c0,.66,0,1.33,0,2v71.86l-4.82-.2.74,0,1.44-.47,1.2-.24.79.09c-.52-.42-.94-.75-.33-1.26.14-.11,0-.53,0-.81V229.07Z" transform="translate(-67.76 -67.07)"/><path class="cls-86" d="M221,304.4l-.22-.78,1.43.26c.08,1.06.22,2.12.22,3.18q0,28.53,0,57.06h-1.91c.72-.25.67-.69.66-1.42-.06-6.48,0-12.95.05-19.43q.06-19.31.08-38.61C221.36,304.57,221.15,304.49,221,304.4Z" transform="translate(-67.76 -67.07)"/><path class="cls-87" d="M296.4,288.8c-.28-.48-.66-.91-.26-1.55.14-.23,0-.63,0-.95q0-27.29,0-54.59c0-.77.37-1.62-.28-2.33a3.7,3.7,0,0,1,.3-.34h1.92c.24.27-.94,0-.17.49,0,0,0,.23,0,.23-.78.22-.57.87-.57,1.39q0,26.72,0,53.42c0,1.09.15,2.18.23,3.27Z" transform="translate(-67.76 -67.07)"/><path class="cls-72" d="M285.84,363.92c-.94-.08-.88-.08-.78-1a15.65,15.65,0,0,0-.17-1.65q0-22.92,0-45.86a2.32,2.32,0,0,0-.09-1.06c-.45-.84.34-.47.57-.63l1.44,4.8-.55.22c.6.66-.06,1.32,0,2-.89-.1-.29.39-.15.5a1.16,1.16,0,0,0,.53.2,12.43,12.43,0,0,0-.31,2q0,18.81,0,37.61c0,.39.12,1-.09,1.15-1,.83.11.64.31.81Z" transform="translate(-67.76 -67.07)"/><path class="cls-88" d="M247.44,302.24l-1.44.47v-3q0-34.05,0-68.08c0-.77-.17-1.54-.24-2.3,0-.08.16-.17.24-.25h1.44l-.47.69v67.77c0,1.27,0,2.55.09,3.82A2.88,2.88,0,0,0,247.44,302.24Z" transform="translate(-67.76 -67.07)"/><path class="cls-89" d="M221,304.4c.11.09.32.17.32.26q0,19.3-.08,38.61c0,6.48-.11,13-.05,19.43,0,.73.06,1.17-.66,1.42h-.26c-.08-1-.22-1.94-.22-2.9q0-27.75,0-55.49C220.06,305,220.19,304.46,221,304.4Z" transform="translate(-67.76 -67.07)"/><path class="cls-14" d="M271,305.84l1.2-.24c.95.67.47,1.64.47,2.49q0,26.61,0,53.22c0,.28-.09.61,0,.83s.45.39.69.58l-.24,1c-.65.74-1.39.57-2.16.24l.24-.24.52-.12c-.56-1-.26-2-.26-3q0-27.1,0-54.21c0-.17-.32-.33-.49-.5Z" transform="translate(-67.76 -67.07)"/><path class="cls-90" d="M273.12,363.68l.24-1a10.49,10.49,0,0,0,.23-1.56q0-26.45,0-52.87a17,17,0,0,1,.29-2.34c0-.28.12-.56.18-.83h0c.92.05.72.73.72,1.29q0,26.8,0,53.61c0,.89.43,1.91.13,2.65-.25.59.29.74.13,1.2l-1,.05Z" transform="translate(-67.76 -67.07)"/><path class="cls-91" d="M271.2,363.68l-.24.24-1.2.23a5.64,5.64,0,0,1-.46-1.54q0-27.63,0-55.25a7.17,7.17,0,0,1,.23-1.28l1.44-.24h0a6.17,6.17,0,0,0-.46,1.62q0,26.94,0,53.88a7.69,7.69,0,0,0,0,1A1.71,1.71,0,0,0,271.2,363.68Z" transform="translate(-67.76 -67.07)"/><path class="cls-92" d="M182.16,229.08c0,.34.7.63,0,1.06-.15.09,0,.6,0,.92,0,7.67,0,15.34,0,23a9.51,9.51,0,0,1-.56,2.12c-.08.34,0,.72-.14,1.06a2.07,2.07,0,0,1-.42.59l-2.71-7.2c1.33.54.36-.93,1-1l.71.46a11.38,11.38,0,0,1-.23-1.63c0-5.12,0-10.23,0-15.34,0-1.13-.23-2.26-.3-3.39,0-.19.2-.41.31-.61Z" transform="translate(-67.76 -67.07)"/><path class="cls-78" d="M233,301.29a11.42,11.42,0,0,1-.23-1.63q0-34.05,0-68.09v-.84c0-.65,0-1.29-.71-1.66H234V230a9.47,9.47,0,0,0-.23,1.48q0,34.08,0,68.17a3.12,3.12,0,0,1,0,1.06c-.1.25-.46.39-.7.58Z" transform="translate(-67.76 -67.07)"/><path class="cls-93" d="M318.48,229c.89.14,1,.74,1,1.51,0,7.83,0,15.67-.07,23.5,0,1-.12,1.77.78,2.35l-2.4,5.29c0-.08,0-.2,0-.24-.33-.32-.91-.59-1-.95s.47-.91.48-1.37q0-14.26,0-28.52a4.62,4.62,0,0,0-.36-1.24L318,229Z" transform="translate(-67.76 -67.07)"/><path class="cls-94" d="M264.24,364.15H262.8c-.06-.23-.11-.47-.19-.7s-.24-.3-.22-.42a9.17,9.17,0,0,0,.39-1.67q0-25.61,0-51.23V309h-.24v53.29a1.55,1.55,0,0,1-.24-.93q0-25.86,0-51.71a2.28,2.28,0,0,1,.25-1.1.79.79,0,0,0-.26-1.23l1.44-.23v45c0,3.39-.05,6.79,0,10.19A8.19,8.19,0,0,0,264.24,364.15Z" transform="translate(-67.76 -67.07)"/><path class="cls-95" d="M239.76,307.51h1.68v2.84q0,25.72,0,51.46a11.42,11.42,0,0,0,.23,1.63v.45l-1.91.24v-.21c.53,0,.83-.17.63-.83a5.2,5.2,0,0,1-.14-1.53q0-25.89,0-51.77a2.18,2.18,0,0,0-.73-2Z" transform="translate(-67.76 -67.07)"/><path class="cls-96" d="M267.6,301.29q0-35,0-70a9.85,9.85,0,0,1,.23-1.51c.24.19.59.33.69.58a3.17,3.17,0,0,1,0,1.07q0,33.59,0,67.17c0,.82.15,1.64.23,2.46Z" transform="translate(-67.76 -67.07)"/><path class="cls-97" d="M258,307.53h1.92l-.24.71c-1.24-.25-.69.75-.69,1.15q0,26,0,51.93v2.83h-1.44c.16-.3.52-.68.44-.88a5.48,5.48,0,0,1-.19-2.12q0-25.59,0-51.18C257.77,309.16,257.92,308.35,258,307.53Z" transform="translate(-67.76 -67.07)"/><path class="cls-44" d="M246.24,364.13h-1.43c.11-.19.32-.39.33-.59,0-.43-.1-.86-.1-1.29v-52.6a2.3,2.3,0,0,1,0-.95c.43-.86-.1-.87-.69-.85-.34,0-.68.1-1,.15l-.24-.45,2.89.24c.07.7.22,1.4.22,2.11q0,25.94,0,51.86Z" transform="translate(-67.76 -67.07)"/><path class="cls-98" d="M251.28,307.78c0,17.13,0,34.25,0,51.37,0,1.38-.5,2.86.47,4.17.07.1-.32.54-.5.82h-1.21c0-1.16,0-2.33,0-3.49q0-25.31,0-50.6a12.32,12.32,0,0,1,.45-2.27Z" transform="translate(-67.76 -67.07)"/><path class="cls-99" d="M207.13,364.12l.78-.33c-.78-.25-1.47-.51-.68-1.46.17-.21.13-.61.13-.92q0-20.71,0-41.44l1.2-4.08c.16.72.73,1.43.06,2.17,0,.05,0,.15,0,.23.06,1.17.19,2.33.19,3.5,0,12.38,0,24.76,0,37.14,0,1.43.15,2.85.19,4.28a3.69,3.69,0,0,1-.19.91Z" transform="translate(-67.76 -67.07)"/><path class="cls-100" d="M250.55,307.78a12.32,12.32,0,0,0-.45,2.27q0,25.31,0,50.6c0,1.16,0,2.33,0,3.49h-.72c-.84-.64-.44-1.56-.44-2.31q-.06-27,0-54.05Z" transform="translate(-67.76 -67.07)"/><path class="cls-65" d="M256.8,364.14h-1.44a11.42,11.42,0,0,0,.23-1.63q0-26.2,0-52.41v-2.32l1.2,0a2,2,0,0,0-.2.64c0,.43.19.85.19,1.27q0,26.19,0,52.37Z" transform="translate(-67.76 -67.07)"/><path class="cls-101" d="M285.84,363.92l.7-.9c-.2-.17-1.34,0-.31-.81.21-.17.09-.76.09-1.15q0-18.81,0-37.61a12.43,12.43,0,0,1,.31-2,1.16,1.16,0,0,1-.53-.2c-.14-.11-.74-.6.15-.5-.07-.67.59-1.33,0-2l.55-.22,1.44,4.8c0,.24-.15.51-.08.71.17.48.67,1-.29,1.17-.06,0-.13.3-.09.43a3.53,3.53,0,0,1,.09,1.92,4.15,4.15,0,0,0-.11.93q0,16.64,0,33.27a5.36,5.36,0,0,0,.33,1.15.45.45,0,0,1,0,.28c-.1.31-.21.62-.31.94h-1.92Z" transform="translate(-67.76 -67.07)"/><path class="cls-102" d="M301.92,283.76l-.24-.72c.74-.29.49-.81.48-1.43,0-7.76,0-15.51,0-23.27q0-13.54,0-27.11a10.19,10.19,0,0,1,.31-1.68l-.8-.51h2.4a13,13,0,0,0-.46,2.43q0,23.5,0,47a17.12,17.12,0,0,0,.24,1.75c0,.16-.22.39-.17.49a7.78,7.78,0,0,0,.64.9Zm1.39-53.47-.12,0v49.62h.12Z" transform="translate(-67.76 -67.07)"/><path class="cls-103" d="M260.88,307.29h.72c.08.85.23,1.71.23,2.56q0,26.19,0,52.37c0,.17-.32.34-.49.5-1.05,0-.71-.78-.71-1.29q0-25.77,0-51.53a11.66,11.66,0,0,1,.14-1.17C260.83,308.25,260.85,307.77,260.88,307.29Z" transform="translate(-67.76 -67.07)"/><path class="cls-104" d="M188.41,229.08a8.43,8.43,0,0,1,.45,1.93c0,12.7,0,25.39,0,38.09,0,.75.22,1.5.25,2.26,0,.12-.43.27-.67.4l-2.08-3.34a2.23,2.23,0,0,0,.43,0,16.56,16.56,0,0,0,.63-3.44q0-16.8,0-33.6c0-.53.09-1.06.14-1.66h-1.35l-.23-.68Z" transform="translate(-67.76 -67.07)"/><path class="cls-26" d="M208.81,364.12a3.69,3.69,0,0,0,.19-.91c0-1.43-.19-2.85-.19-4.28,0-12.38,0-24.76,0-37.14,0-1.17-.13-2.33-.19-3.5,0-.08,0-.18,0-.23.67-.74.1-1.45-.06-2.17.34-1.27.67-2.54,1-3.81.33.58.65,1.16,1,1.74a.33.33,0,0,1,0,.2c-1.43.24-.48,1.26-.48,1.8C210,330.88,210,345.94,210,361c0,.81,0,1.63,0,2.44,0,.09.22.16.33.24l.59.44Z" transform="translate(-67.76 -67.07)"/><path class="cls-28" d="M212.39,301.5a5.08,5.08,0,0,1,.4,2,19.32,19.32,0,0,0-.15,4.86q0,26.67,0,53.34c0,.43-.29,1.07.58,1.07a1.25,1.25,0,0,1,.08.69,2.46,2.46,0,0,1-.43.67h-1.67a4.71,4.71,0,0,0,.45-2.95q0-16.29,0-32.59,0-10.54,0-21.09c0-.46.2-.92.17-1.37,0-.27-.29-.52-.45-.77Z" transform="translate(-67.76 -67.07)"/><path class="cls-105" d="M214.8,363.92h-.24V301l.49.22c.73,1.76.46,3.62.46,5.44q0,27.24,0,54.48C215.51,362.12,215.67,363.17,214.8,363.92Z" transform="translate(-67.76 -67.07)"/><path class="cls-18" d="M278.4,303.92h.48a1.69,1.69,0,0,0-.74,1.62q0,27.75,0,55.5c0,.84.81,1.72,0,2.56.81.11.29.35.05.56h-1V306.45c0-.27,0-.55,0-.83,0-.71-.35-.87-1-.74l-.48-.24Z" transform="translate(-67.76 -67.07)"/><path class="cls-105" d="M204,229.08c0,.15.68.4-.06.44-.38,0-.65-.07-.17.4.21.2,0,.83,0,1.26q0,27.76,0,55.51c0,.4-.55,1.4.69,1.15l-.24.94-2.63-2.15.23-.23c.42.17.76.22.79-.41s.16-1.18.16-1.77q0-17.54,0-35.09c0-6,0-12,0-18a3.51,3.51,0,0,0-.46-1.16l-.71-.64.7-.28Z" transform="translate(-67.76 -67.07)"/><path class="cls-106" d="M222.48,364.12q0-28.53,0-57.06c0-1.06-.14-2.12-.22-3.18l.95.29a17,17,0,0,1,.23,2q0,28.17,0,56.33a6.14,6.14,0,0,0,.45,1.62Z" transform="translate(-67.76 -67.07)"/><path class="cls-47" d="M276.24,304.88c.61-.13,1,0,1,.74,0,.28,0,.56,0,.83v57.71h-1l-.56-1.12.82-.11a9.26,9.26,0,0,1-.25-1.55q0-21,0-42Z" transform="translate(-67.76 -67.07)"/><path class="cls-107" d="M205,328.13c.06,1.17.18,2.33.18,3.49q.06,16.26.07,32.5h-.73l-.92-.36c-.27-.48,1.22-.77-.07-1.17a2,2,0,0,1,0-.44q0-14,0-27.92a5.23,5.23,0,0,0-.19-1Z" transform="translate(-67.76 -67.07)"/><path class="cls-31" d="M290.88,332.24l2.16,7.68c-.81.26-1.29.63-.65,1.54a1.46,1.46,0,0,1,.16.79c0,6.55,0,13.11,0,19.66,0,.71.18.89.89.91-1.08,0-1.09.65-1.1,1.34h-2.16l1.18-.34-1-.75,1.22-.21c-1,.06-1-.63-1-1.31q0-11.61,0-23.23c0-.75,0-1.51,0-2.27,0-.49-.5-1,.15-1.45C290,333.78,291.05,333,290.88,332.24Z" transform="translate(-67.76 -67.07)"/><path class="cls-108" d="M230.17,305.87l.47.45c-.84.21-.47.87-.47,1.36q0,27.27,0,54.55v1.89h-1.91l.23-.2c.66.07.78-.42.8-.88,0-.65-.08-1.31-.08-2q0-26.79,0-53.57a14.85,14.85,0,0,0-.23-1.88Z" transform="translate(-67.76 -67.07)"/><path class="cls-51" d="M229,305.63a14.85,14.85,0,0,1,.23,1.88q0,26.78,0,53.57c0,.65.11,1.31.08,2,0,.46-.14.95-.8.88-.35-.37-1-.63-.29-1.29.14-.13.05-.54.05-.82q0-27.17,0-54.35a9.8,9.8,0,0,0-.46-2.09Z" transform="translate(-67.76 -67.07)"/><path class="cls-109" d="M227.76,305.37a9.8,9.8,0,0,1,.46,2.09q0,27.18,0,54.35c0,.28.09.69-.05.82-.76.66-.06.92.29,1.29l-.23.2h-1.44a6.87,6.87,0,0,0,.52-1.48,13.28,13.28,0,0,0-.05-1.78q0-26.28,0-52.54c0-.47-.08-.94-.12-1.41,0-.11,0-.3,0-.33.81-.45,0-.67-.12-1l-.24-.46Z" transform="translate(-67.76 -67.07)"/><path class="cls-110" d="M227,305.6c.15.31.93.53.12,1,0,0,0,.22,0,.33,0,.47.12.94.12,1.41q0,26.26,0,52.54a13.28,13.28,0,0,1,.05,1.78,6.87,6.87,0,0,1-.52,1.48l-.74-.18.25-1.46V323.2c0-5.15,0-10.3,0-15.45A7.8,7.8,0,0,1,227,305.6Z" transform="translate(-67.76 -67.07)"/><path class="cls-81" d="M274.08,305.12c-.06.27-.14.55-.18.83a17,17,0,0,0-.29,2.34q0,26.43,0,52.87a10.49,10.49,0,0,1-.23,1.56c-.24-.19-.56-.33-.69-.58s0-.55,0-.83q0-26.61,0-53.22c0-.85.48-1.82-.47-2.49Z" transform="translate(-67.76 -67.07)"/><path class="cls-111" d="M200.87,364.12h-4.08a5.06,5.06,0,0,1,.3-.88c.11-.18.35-.28.53-.42a2.85,2.85,0,0,1-.5,0,.3.3,0,0,1-.19-.22,11.44,11.44,0,0,1-.13-2.47,4,4,0,0,0,0-2.08s.05-.1.08-.15c.71-.88.71-.88-.13-1.7.49-2,.94-4,1.49-5.9s1.25-4.08,1.89-6.12c.36.51,0,1.15.07,1.48a7.65,7.65,0,0,1,.4,2.08c0,4.67,0,9.33,0,14a5.4,5.4,0,0,0,.37,1.35l-.75.13Z" transform="translate(-67.76 -67.07)"/><path class="cls-112" d="M265.68,306.8q0,27.17,0,54.32c0,.75.1,1.49.17,2.24,0,.1.05.27.11.28,1.17.28-.38.32-.05.51h-1.2a1.54,1.54,0,0,0,.18-.52c0-.75-.17-1.49-.17-2.24q0-18.69,0-37.38c0-5.27,0-10.54,0-15.81a3.43,3.43,0,0,0-.46-1.16Z" transform="translate(-67.76 -67.07)"/><path class="cls-113" d="M230.16,364.12v-1.89q0-27.27,0-54.55c0-.49-.37-1.15.47-1.36a10.15,10.15,0,0,1,.46,2.13c0,17.18,0,34.37,0,51.55a11.84,11.84,0,0,1-.09,2.88c-.23.85.41.84.54,1.25Z" transform="translate(-67.76 -67.07)"/><path class="cls-114" d="M235,306.76q0,27.35,0,54.68c0,.89.15,1.79.23,2.69H234c.16-.61.54-1.18.08-1.86-.17-.26-.08-.7-.08-1.06q0-26.55,0-53.1a9.82,9.82,0,0,1,.22-1.51Z" transform="translate(-67.76 -67.07)"/><path class="cls-115" d="M237.85,364.13h-.5c-.09-.22-.27-.44-.25-.66.05-.85.25-1.7.25-2.56q0-25.49,0-51c0-.32.13-.76,0-.94-.68-.79-.15-1.34.26-1.93h.26a4.94,4.94,0,0,1,.48,3q0,26.36,0,52.7A4.2,4.2,0,0,1,237.85,364.13Z" transform="translate(-67.76 -67.07)"/><path class="cls-40" d="M237.59,307.07c-.41.59-.94,1.14-.26,1.93.16.18,0,.62,0,.94q0,25.49,0,51c0,.86-.2,1.71-.25,2.56,0,.22.16.44.25.66h-1.42a5.14,5.14,0,0,0,.51-1.52c0-4.12,0-8.23,0-12.34,0-13.38,0-26.77,0-40.15a23.08,23.08,0,0,0-.45-3.28Z" transform="translate(-67.76 -67.07)"/><path class="cls-116" d="M243.12,307.55l.24.45v.72a4.52,4.52,0,0,0-.23,1q0,26.07,0,52.15A2.94,2.94,0,0,1,243,363c-.28.65-.08.9.56.93v.21l-1.93-.24v-.45a5,5,0,0,0,.55-.33c-.45-1,.05-1.95,0-2.93s0-2.23,0-3.35V315.48c0-2.23-.08-4.47-.06-6.7a3.64,3.64,0,0,1,.53-1.23Z" transform="translate(-67.76 -67.07)"/><path class="cls-117" d="M186,229.08l.23.68v35.5c0,.51-.24,1.12,0,1.53.55,1.1-.51.12-.51.44l-1.19-2.17a.57.57,0,0,0,.37-.95,5.25,5.25,0,0,1-.61-.73.57.57,0,0,1,0-.51c.52-.49.52-.47.52-1.15q0-15.8,0-31.6a.92.92,0,0,0-.15-.57c-.19-.25-.22-.23.14-.47Z" transform="translate(-67.76 -67.07)"/><path class="cls-88" d="M243.6,364.13v-.21c.18-.16.5-.31.51-.48,0-.67,0-1.34,0-2V310.25a2.49,2.49,0,0,0,0-.95c-.11-.25-.45-.39-.69-.58V308c.34-.05.68-.13,1-.15.59,0,1.12,0,.69.85a2.3,2.3,0,0,0,0,.95v52.6c0,.43.12.86.1,1.29,0,.2-.22.4-.33.59Z" transform="translate(-67.76 -67.07)"/><path class="cls-118" d="M264.24,307a3.43,3.43,0,0,1,.46,1.16c0,5.27,0,10.54,0,15.81q0,18.69,0,37.38c0,.75.13,1.49.17,2.24a1.54,1.54,0,0,1-.18.52h-.48a8.19,8.19,0,0,1-.5-1.88c0-3.4,0-6.8,0-10.19v-45Z" transform="translate(-67.76 -67.07)"/><path class="cls-119" d="M256.8,364.14V362q0-26.19,0-52.37c0-.42-.16-.84-.19-1.27a2,2,0,0,1,.2-.64l1.2-.23c-.08.82-.23,1.63-.23,2.44q0,25.59,0,51.18a5.48,5.48,0,0,0,.19,2.12c.08.2-.28.58-.44.88Z" transform="translate(-67.76 -67.07)"/><path class="cls-8" d="M260.88,307.29c0,.48-.05,1-.09,1.44a11.66,11.66,0,0,0-.14,1.17q0,25.77,0,51.53c0,.51-.34,1.32.71,1.29l-.72,1-1-.39c.15-.2.44-.4.42-.57a13.69,13.69,0,0,1-.34-1.37q0-25.64,0-51.29c0-.45.2-.89.24-1.34,0-.15-.16-.32-.25-.48l.24-.71Z" transform="translate(-67.76 -67.07)"/><path class="cls-120" d="M248.88,307.78q0,27,0,54.05c0,.75-.4,1.67.44,2.31h-1.67c.08-1,.23-2.05.23-3.08q0-25.74,0-51.48a7.83,7.83,0,0,1,.45-1.79Z" transform="translate(-67.76 -67.07)"/><path class="cls-62" d="M248.39,307.78a7.83,7.83,0,0,0-.45,1.79q0,25.74,0,51.48c0,1-.15,2.06-.23,3.08h-.25c-.91-.76-.43-1.81-.43-2.69q-.08-25.83,0-51.66c0-.67.4-1.33,0-2Z" transform="translate(-67.76 -67.07)"/><path class="cls-121" d="M258,302.48a.81.81,0,0,0,.54-1,12.46,12.46,0,0,1-.06-2.12q0-34,0-68a6.17,6.17,0,0,1,.46-1.62l.77-.22a7.86,7.86,0,0,0-.51,1.94q0,33.32,0,66.64c0,1.21-.38,2.48.26,3.67,0,.11-.34.46-.52.69l-1.67.22Z" transform="translate(-67.76 -67.07)"/><path class="cls-122" d="M254.64,301.52a14.61,14.61,0,0,1-.23-1.85q0-34.31,0-68.62c0-.65.28-1.45-.88-1.6l1.36-.39h.25q0,35.3,0,70.59a10.69,10.69,0,0,0,.34,1.82Z" transform="translate(-67.76 -67.07)"/><path class="cls-123" d="M265.92,301.28a4,4,0,0,1-.46-1.26q0-34.83,0-69.66a1.24,1.24,0,0,1,.73-1.3h.49a2.34,2.34,0,0,0-.49,1.74q0,34.7,0,69.37A5.57,5.57,0,0,1,265.92,301.28Z" transform="translate(-67.76 -67.07)"/><path class="cls-124" d="M301.68,229l.8.51a10.19,10.19,0,0,0-.31,1.68q0,13.56,0,27.11c0,7.76,0,15.51,0,23.27,0,.62.26,1.14-.48,1.43a4.85,4.85,0,0,1-.46-1.41q0-25.29,0-50.59c0-.34.32-.68.32-1a3.15,3.15,0,0,0-.33-1Z" transform="translate(-67.76 -67.07)"/><path class="cls-125" d="M233,301.29c.24-.19.6-.33.7-.58a3.12,3.12,0,0,0,0-1.06q0-34.09,0-68.17A9.47,9.47,0,0,1,234,230a1.92,1.92,0,0,1,.45.45,1.43,1.43,0,0,1,0,.59q0,35.25,0,70.51Z" transform="translate(-67.76 -67.07)"/><path class="cls-126" d="M226.06,299.61c.72-.32.75-.93.75-1.61,0-4.76,0-9.51,0-14.27q0-26,0-52c0-.69-.19-1.38-.2-2.08,0-.14.45-.28.69-.42a11.42,11.42,0,0,1,.23,1.63q0,33.15,0,66.28c0,1,.14,1.93.22,2.9Z" transform="translate(-67.76 -67.07)"/><path class="cls-127" d="M280.08,229.28c.17.23.49.46.49.69,0,.69-.24,1.38-.24,2.07q0,31,0,62c0,.83,0,1.67,0,2.49,0,.31.29.6.45.9l-1.68.72c.65-.71.48-1.58.48-2.42q0-32.37,0-64.75C279.62,230.41,279.17,229.64,280.08,229.28Z" transform="translate(-67.76 -67.07)"/><path class="cls-128" d="M179.75,229.08c-.11.2-.33.42-.31.61.07,1.13.3,2.26.3,3.39,0,5.11,0,10.22,0,15.34a11.38,11.38,0,0,0,.23,1.63l-.71-.46c-.63.12.34,1.59-1,1-.57-1.83-1.15-3.66-1.72-5.49a6.94,6.94,0,0,0,.29-1.32q0-6.33,0-12.66c0-.56-.49-1.37-.26-1.63s1.11-.33,1.7-.46Zm-.83,20h.24V230.16h-.24Z" transform="translate(-67.76 -67.07)"/><path class="cls-129" d="M200.87,364.12l-.59-.87.75-.13a5.4,5.4,0,0,1-.37-1.35c0-4.67,0-9.33,0-14a7.65,7.65,0,0,0-.4-2.08c-.1-.33.29-1-.07-1.48l1.66-5.74c.19.15.75-.48.66.35-.07.64.09,1.3.08,2,0,7.39-.07,14.79-.08,22.19a4.5,4.5,0,0,0,.32,1.15Z" transform="translate(-67.76 -67.07)"/><path class="cls-130" d="M322.56,250.16a8.17,8.17,0,0,1-.23-1.37q0-9.87,0-19.75h3.84l-1.81.42,0,.19,1.13.14a6.64,6.64,0,0,0-.29,1.17c-.1,1.79-.18,3.58-.24,5.36a26.79,26.79,0,0,0,0,2.69c0,.28.28.54.43.82-.8,3-1.59,5.93-2.4,8.89C322.9,249.22,322.72,249.68,322.56,250.16Z" transform="translate(-67.76 -67.07)"/><path class="cls-131" d="M185.69,267.23c0-.32,1.06.66.51-.44-.2-.41,0-1,0-1.53v-35.5h1.35c-.05.6-.14,1.13-.14,1.66q0,16.8,0,33.6a16.56,16.56,0,0,1-.63,3.44,2.23,2.23,0,0,1-.43,0Z" transform="translate(-67.76 -67.07)"/><path class="cls-132" d="M191.76,229.08c-.26.2.77.55-.07.7-.06,0-.09.13-.14.2.93.55.42,1.45.42,2.16q.06,21.41,0,42.81a8,8,0,0,1-.22,1.36l-1.63-2.15c.19-.16.5-.3.54-.49A16.38,16.38,0,0,0,191,271c0-13.25,0-26.5,0-39.75,0-.72-.5-1.6.45-2.15Z" transform="translate(-67.76 -67.07)"/><path class="cls-133" d="M214.56,301v62.89c-.19,0-.52-.07-.53-.14a21.18,21.18,0,0,1-.18-2.38q0-29.55,0-59.08a10,10,0,0,1,.23-1.52Z" transform="translate(-67.76 -67.07)"/><path class="cls-134" d="M226.32,362.48l-.25,1.46-1.67.18a15.88,15.88,0,0,0,.46-2.7q0-26.75,0-53.49c0-.7-.12-1.39-.1-2.08a5.25,5.25,0,0,1,.34-1.18l.5.18c.12.47.7.88-.11,1.44-.27.19.09,1.23.09,1.88q0,26.38,0,52.78a2.5,2.5,0,0,0,0,.95C225.74,362.15,226.08,362.29,226.32,362.48Z" transform="translate(-67.76 -67.07)"/><path class="cls-13" d="M217.44,363c-.24-.19-.56-.33-.69-.58s0-.55,0-.83q0-28.69,0-57.41A18.82,18.82,0,0,1,217,302l.71.26a11.2,11.2,0,0,0-.22,1.63Q217.44,333.43,217.44,363Z" transform="translate(-67.76 -67.07)"/><path class="cls-17" d="M260.64,363.68l.72-1c.17-.16.49-.33.49-.5q0-26.18,0-52.37c0-.85-.15-1.71-.23-2.56h.72a.79.79,0,0,1,.26,1.23,2.28,2.28,0,0,0-.25,1.1q0,25.86,0,51.71a1.55,1.55,0,0,0,.24.93V309h.24v1.17q0,25.62,0,51.23a9.17,9.17,0,0,1-.39,1.67c0,.12.16.27.22.42s.13.47.19.7l-2.16-.24Z" transform="translate(-67.76 -67.07)"/><path class="cls-135" d="M237.85,364.13a4.2,4.2,0,0,0,.5-1.32q0-26.35,0-52.7a4.94,4.94,0,0,0-.48-3l1.91.43-.24.25a11.06,11.06,0,0,0-.46,2.23q0,25.62,0,51.26c0,.43.24,1,.06,1.28-.48.87,0,1.13.66,1.39v.21Z" transform="translate(-67.76 -67.07)"/><path class="cls-136" d="M226.32,362.48c-.24-.19-.58-.33-.69-.58a2.5,2.5,0,0,1,0-.95q0-26.38,0-52.78c0-.65-.36-1.69-.09-1.88.81-.56.23-1,.11-1.44l1.19.29.24.46a7.8,7.8,0,0,0-.69,2.15c-.06,5.15,0,10.3,0,15.45Z" transform="translate(-67.76 -67.07)"/><path class="cls-137" d="M267.12,364.15V306.56c.24.19.58.34.69.58a2.5,2.5,0,0,1,0,.95q0,25.82,0,51.64c0,1.36-.35,2.76.28,4.09,0,.05-.19.22-.3.33Z" transform="translate(-67.76 -67.07)"/><path class="cls-138" d="M247,307.79c.41.66,0,1.32,0,2q0,25.83,0,51.66c0,.88-.48,1.93.43,2.69h-1.19v-2.37q0-25.92,0-51.86c0-.71-.15-1.41-.22-2.11Z" transform="translate(-67.76 -67.07)"/><path class="cls-24" d="M255.6,307.78v2.32q0,26.2,0,52.41a11.42,11.42,0,0,1-.23,1.63h-.25c-.2-.39-1.32-.51-.27-1.29.27-.21,0-1.09,0-1.67q0-25.4,0-50.79c0-.69.44-1.48-.25-2.11l.74-.5Z" transform="translate(-67.76 -67.07)"/><path class="cls-96" d="M260.64,363.68v.23l-1.68.24v-2.83q0-26,0-51.93c0-.4-.55-1.4.69-1.15.09.16.26.33.25.48,0,.45-.24.89-.24,1.34q0,25.65,0,51.29a13.69,13.69,0,0,0,.34,1.37c0,.17-.27.37-.42.57Z" transform="translate(-67.76 -67.07)"/><path class="cls-93" d="M292.32,364.16c0-.69,0-1.37,1.1-1.34-.71,0-.9-.2-.89-.91.05-6.55,0-13.11,0-19.66a1.46,1.46,0,0,0-.16-.79c-.64-.91-.16-1.28.65-1.54l1.92,7c-.87.08-.25,1.58-1.36,1.43a2,2,0,0,0,.43.44c.1.05.29-.09.35-.11-.05.5-.12.95-.13,1.41,0,.91,0,1.83,0,2.75v5.64a11,11,0,0,1-.06,2.87c-.22.78.87,1.47,0,2.18,0,0,.06.14.11.16,1.16.28-.38.31-.05.51Z" transform="translate(-67.76 -67.07)"/><path class="cls-139" d="M242.63,307.55a3.64,3.64,0,0,0-.53,1.23c0,2.23.05,4.47.06,6.7v41.35c0,1.12-.08,2.25,0,3.35s-.41,2,0,2.93a5,5,0,0,1-.55.33,11.42,11.42,0,0,1-.23-1.63q0-25.74,0-51.46v-2.84Z" transform="translate(-67.76 -67.07)"/><path class="cls-84" d="M294.24,364.16c-.33-.2,1.21-.23.05-.51-.05,0-.11-.16-.11-.16.87-.71-.22-1.4,0-2.18a11,11,0,0,0,.06-2.87V352.8c0-.92,0-1.84,0-2.75,0-.46.08-.91.13-1.41-.06,0-.25.16-.35.11a2,2,0,0,1-.43-.44c1.11.15.49-1.35,1.36-1.43.6,2,1.2,4,1.77,5.95.17.57.26,1.15.39,1.73a9.37,9.37,0,0,0-.23,1.39c0,2,0,3.91,0,5.87,0,.78-.15,1.56-.23,2.34Z" transform="translate(-67.76 -67.07)"/><path class="cls-140" d="M178.31,229.08c-.59.13-1.37.1-1.7.46s.25,1.07.26,1.63q0,6.33,0,12.66a6.94,6.94,0,0,1-.29,1.32,96.07,96.07,0,0,1-3-15.21c-.09-.66.05-.95.78-.91C175.67,229.09,177,229.07,178.31,229.08Z" transform="translate(-67.76 -67.07)"/><path class="cls-80" d="M290.88,332.24c.17.8-.87,1.54-.1,2.36-.65.43-.17,1-.15,1.45,0,.76,0,1.52,0,2.27q0,11.63,0,23.23c0,.68-.07,1.37,1,1.31l-1.22.21,1,.75-1.18.34h-.48c.26-.29-1.05-.06-.19-.56a.38.38,0,0,0,.14-.17c-.6-.73.1-1.41.09-2.13-.07-8,0-16.05,0-24.08a43.1,43.1,0,0,1,.06-4.55c.07-.72.35-1.33,0-2.08s.62-.1.69-.51Z" transform="translate(-67.76 -67.07)"/><path class="cls-117" d="M202.79,364.12a4.5,4.5,0,0,1-.32-1.15c0-7.4.06-14.8.08-22.19,0-.66-.15-1.32-.08-2,.09-.83-.47-.2-.66-.35l1.51-5.26a5.23,5.23,0,0,1,.19,1q0,14,0,27.92a2,2,0,0,0,0,.44c1.29.4-.2.69.07,1.17l.92.36Z" transform="translate(-67.76 -67.07)"/><path class="cls-141" d="M312.72,229a2.09,2.09,0,0,0-.48,1.7V271l-.95.31c1-3.4.41-6.87.44-10.3.09-9.9,0-19.79,0-29.69a8.05,8.05,0,0,0-.23-1.36c-.16-.38-.37-.77.24-1Z" transform="translate(-67.76 -67.07)"/><path class="cls-130" d="M296.64,364.16c.08-.78.22-1.56.23-2.34,0-2,0-3.91,0-5.87a9.37,9.37,0,0,1,.23-1.39c.72,2.53,1.46,5.05,2.14,7.58.54,2,.5,2-1.67,2Z" transform="translate(-67.76 -67.07)"/><path class="cls-142" d="M325.43,239.84c-.15-.28-.41-.54-.43-.82a26.79,26.79,0,0,1,0-2.69c.06-1.78.14-3.57.24-5.36a6.64,6.64,0,0,1,.29-1.17l-1.13-.14,0-.19,1.81-.42c1-.16,1,.41.93,1.14C326.54,233.41,326,236.62,325.43,239.84Z" transform="translate(-67.76 -67.07)"/><path class="cls-143" d="M196.77,356.23c.84.82.84.82.13,1.7,0,.05-.09.11-.08.15a4,4,0,0,1,0,2.08,11.44,11.44,0,0,0,.13,2.47.3.3,0,0,0,.19.22,2.85,2.85,0,0,0,.5,0c-.18.14-.42.24-.53.42a5.06,5.06,0,0,0-.3.88c-2.17.11-2.2.11-1.68-1.93S196.22,358.21,196.77,356.23Z" transform="translate(-67.76 -67.07)"/><path class="cls-122" d="M251.53,302.93l.47-.45h2.86l0-.2-1.45-.38v-.14h1.2c.14.06.28.18.42.18.82,0,.61.37.3.79Z" transform="translate(-67.76 -67.07)"/><path d="M279.14,197.84c-.54,0-.9.07-1.25.12-.93.13-1.54,0-1.78-1.15a2.82,2.82,0,0,0-2.32-2.18,7.23,7.23,0,0,0-4.68.33,2,2,0,0,0-1.32,1.82,1.87,1.87,0,0,0,1.28,1.85c1.37.52,2.79.92,4.19,1.36s2.93.8,4.33,1.36c3.33,1.32,4.73,3.63,4.65,7.42a7.19,7.19,0,0,1-4.94,6.56,15,15,0,0,1-9.65.09c-3.57-1.17-5.15-3.94-5.69-7.45a.7.7,0,0,1,.44-.56c1.31-.19,2.62-.29,3.93-.45.71-.09.63.5.72.85a4.56,4.56,0,0,0,4.1,3.8,12.29,12.29,0,0,0,3.76-.36,3,3,0,0,0,2.07-2,2.22,2.22,0,0,0-1.15-3c-1.42-.6-2.95-1-4.43-1.42-1.29-.41-2.61-.72-3.87-1.22-3.25-1.31-4.94-3.89-4.69-7,.23-3,2.41-5.34,5.74-6.08a15,15,0,0,1,7.59.18,7.13,7.13,0,0,1,5.32,6.14c.11.68.07,1.18-.86,1A10.68,10.68,0,0,0,279.14,197.84Z" transform="translate(-67.76 -67.07)"/><path d="M257.76,203.12c0,3.84,0,7.68,0,11.52,0,.78-.2,1-1,1a26.78,26.78,0,0,0-3.23,0c-.7,0-.86-.21-.85-.87,0-3,0-6.08,0-9.12,0-.81-.23-1-1-1-2.64.05-5.28,0-7.92,0-.76,0-1,.18-1,1,.05,2.92,0,5.84.05,8.76,0,1-.3,1.3-1.27,1.21a15.29,15.29,0,0,0-2.87,0c-.88.08-.95-.33-.94-1,0-4.08,0-8.16,0-12.23,0-3.6,0-7.2,0-10.8,0-.83.21-1.12,1.06-1.05a19.64,19.64,0,0,0,2.87,0c.87-.07,1.18.15,1.16,1.1-.08,2.63,0,5.27-.05,7.91,0,.74.2.95.94.94q4-.08,8,0c.74,0,.95-.18.94-.93-.05-2.72,0-5.44,0-8.16,0-.66.15-.9.85-.86,1.11.06,2.24.05,3.35,0,.69,0,.87.18.87.86C257.74,195.29,257.76,199.2,257.76,203.12Z" transform="translate(-67.76 -67.07)"/><path d="M232.36,200.08c0,2.59,0,5.19,0,7.79s-.58,4.92-2.74,6.6a9.7,9.7,0,0,1-10.08.49c-2.41-1.55-3.08-4-3.14-6.61a.91.91,0,0,1,.58-.63c1.18-.16,2.38-.21,3.57-.36.55-.07.7.11.72.63a6.16,6.16,0,0,0,.21,1.41,2.74,2.74,0,0,0,3,2.32c1.6-.06,2.37-.72,2.64-2.52a23.39,23.39,0,0,0,.19-3.46c0-4.67,0-9.35,0-14,0-.89.14-1.32,1.16-1.22a18.65,18.65,0,0,0,3,0c.75,0,.94.21.93.94C232.34,194.32,232.36,197.2,232.36,200.08Z" transform="translate(-67.76 -67.07)"/><ellipse class="cls-48" cx="204.8" cy="197.34" rx="0.06" ry="48.67"/><path class="cls-144" d="M247.44,302.24a2.88,2.88,0,0,1-.39-.89c-.07-1.27-.09-2.55-.09-3.82V229.76h.87c-.05.64-.14,1.2-.14,1.77q0,34,0,68.07a2.87,2.87,0,0,1,0,.83c-.33.95.1,1.39,1,1.57Z" transform="translate(-67.76 -67.07)"/><path class="cls-133" d="M202.32,230a3.51,3.51,0,0,1,.46,1.16c0,6,0,12,0,18q0,17.55,0,35.09c0,.59-.13,1.18-.16,1.77s-.37.58-.79.41c0-.34,0-.68,0-1s0-.8,0-1.2q0-26.4,0-52.79C201.86,230.93,201.47,230.23,202.32,230Z" transform="translate(-67.76 -67.07)"/><path class="cls-141" d="M311.45,230v40.13a.69.69,0,0,1-.19,0l-.09,0q-.07-19.49-.13-39c0-.24,0-.48,0-.72a1.08,1.08,0,0,1,.13-.32s.06,0,.1-.06Z" transform="translate(-67.76 -67.07)"/><path class="cls-14" d="M287.92,230.08v61.34h-.09V230Z" transform="translate(-67.76 -67.07)"/><path class="cls-56" d="M271.2,363.68a1.71,1.71,0,0,1-.71-1.38,7.69,7.69,0,0,1,0-1q0-26.94,0-53.88a6.17,6.17,0,0,1,.46-1.62c.17.17.49.33.49.5q0,27.11,0,54.21c0,1-.3,2.05.26,3Z" transform="translate(-67.76 -67.07)"/><path class="cls-41" d="M239.76,363.92c-.63-.26-1.14-.52-.66-1.39.18-.32-.06-.85-.06-1.28q0-25.63,0-51.26a11.06,11.06,0,0,1,.46-2.23,2.18,2.18,0,0,1,.73,2q0,25.88,0,51.77a5.2,5.2,0,0,0,.14,1.53C240.59,363.75,240.29,363.88,239.76,363.92Z" transform="translate(-67.76 -67.07)"/><path class="cls-33" d="M303.31,230.29v49.6h-.12V230.27Z" transform="translate(-67.76 -67.07)"/><path class="cls-23" d="M243.36,308.72c.24.19.58.33.69.58a2.49,2.49,0,0,1,0,.95v51.18c0,.67.07,1.34,0,2,0,.17-.33.32-.51.48-.64,0-.84-.28-.56-.93a2.94,2.94,0,0,0,.08-1.12q0-26.07,0-52.15A4.52,4.52,0,0,1,243.36,308.72Z" transform="translate(-67.76 -67.07)"/><ellipse class="cls-92" cx="111.28" cy="172.53" rx="0.17" ry="13.36"/><path class="cls-145" d="M173.36,228.8a105.05,105.05,0,0,0,4.54,20.67c.4,1.22,1.64,4.85,3.64,9.43a83.16,83.16,0,0,0,4.77,9.66,71.16,71.16,0,0,0,25.22,25,67.94,67.94,0,0,0,16.25,6.59A80.08,80.08,0,0,0,246.52,303a88.46,88.46,0,0,0,17.5-.9,80.44,80.44,0,0,0,13.18-3.19,71.1,71.1,0,0,0,14.88-7,70.13,70.13,0,0,0,15.9-14.2,74.87,74.87,0,0,0,9.77-15.34,90.26,90.26,0,0,0,5.46-13.86A106.22,106.22,0,0,0,327.3,229Z" transform="translate(-67.76 -67.07)"/><path class="cls-146" d="M212.67,300a88,88,0,0,0,17.61,5.79,90.52,90.52,0,0,0,10.33,1.59,99.1,99.1,0,0,0,25.34-.79,100.69,100.69,0,0,0,16.13-4q9,30.74,17.95,61.47l-105.54.22Z" transform="translate(-67.76 -67.07)"/></svg>